<?xml version="1.0" encoding="UTF-8"?>
<svg width="34px" height="37px" viewBox="0 0 34 37" version="1.1" xmlns="http://www.w3.org/2000/svg" xmlns:xlink="http://www.w3.org/1999/xlink">
    <!-- Generator: sketchtool 53.2 (72643) - https://sketchapp.com -->
    <title>710A9952-83CD-460C-BB1B-833E4D4B8F90</title>
    <desc>Created with sketchtool.</desc>
    <g id="uri" stroke="none" stroke-width="1" fill="none" fill-rule="evenodd">
        <g id="Left_panel_source_view_appdynamics" transform="translate(-16.000000, -13.000000)" fill="#FFFFFF" fill-rule="nonzero">
            <g id="AppD_Logo-Copy" transform="translate(16.000000, 13.000000)">
                <path d="M9.88940092,21.6320336 L4.74654378,10.1905232 C1.84331797,12.5920533 -2.27373675e-13,16.1989141 -2.27373675e-13,20.2349457 C-2.27373675e-13,27.4577986 5.91705069,33.3200888 13.2073733,33.3200888 C13.843318,33.3200888 14.4700461,33.2744324 15.078341,33.1922507 L9.95391705,21.7872655 C9.93548387,21.7324778 9.91705069,21.6868213 9.88940092,21.6320336 Z M33.7419355,34.0140671 L33.3917051,34.88154 L33.0414747,34.0140671 L32.7926267,34.0140671 L32.7926267,35.3381046 L33.0322581,35.3381046 L33.0322581,34.4980257 L33.3271889,35.2102665 L33.4654378,35.2102665 L33.7603687,34.4980257 L33.7603687,35.3381046 L34,35.3381046 L34,34.0140671 L33.7419355,34.0140671 Z M13.2165899,0 C11.5299539,0 9.89861751,0.20088845 8.33179724,0.584402764 L11.3456221,7.28677196 C11.9631336,7.20459033 12.5898618,7.15893386 13.2258065,7.15893386 C20.516129,7.15893386 26.4331797,13.0212241 26.4331797,20.244077 C26.4331797,24.2801086 24.5898618,27.8961007 21.6866359,30.2976308 L24.7004608,37 C30.1105991,33.356614 33.6589862,27.220385 33.6589862,20.2532083 C33.640553,9.06737414 24.4976959,0 13.2165899,0 Z M31.6129032,34.2149556 L31.9631336,34.2149556 L31.9631336,35.3381046 L32.202765,35.3381046 L32.202765,34.2149556 L32.5529954,34.2149556 L32.5529954,34.0140671 L31.6129032,34.0140671 L31.6129032,34.2149556 Z" id="Shape"></path>
            </g>
        </g>
    </g>
</svg>