<?xml version="1.0" encoding="UTF-8"?>
<svg width="200px" height="43px" viewBox="0 0 200 43" version="1.1" xmlns="http://www.w3.org/2000/svg" xmlns:xlink="http://www.w3.org/1999/xlink">
    <!-- Generator: sketchtool 53.2 (72643) - https://sketchapp.com -->
    <title>263A717A-C268-41D7-8E3B-E13241495C95</title>
    <desc>Created with sketchtool.</desc>
    <g id="uri" stroke="none" stroke-width="1" fill="none" fill-rule="evenodd">
        <g id="Left_panel_source_view_appdynamics" transform="translate(-74.000000, -14.000000)" fill="#FFFFFF" fill-rule="nonzero">
            <g id="AppD_Logo-Copy" transform="translate(16.000000, 13.000000)">
                <path d="M72.6646149,16.9414634 L63.2569591,16.9414634 L61.7170418,20.3310105 L58.0442505,20.3310105 L66.1155413,2.38583043 L69.8148829,2.38583043 L77.8861736,20.3310105 L74.186832,20.3310105 L72.6646149,16.9414634 Z M67.9652121,6.15493612 L64.6198744,13.7990708 L71.3016996,13.7990708 L67.9652121,6.15493612 Z M84.71646,15.0524971 L84.71646,18.3979094 C84.71646,19.4659698 83.8491502,20.3310105 82.7782882,20.3310105 L81.3268718,20.3310105 L81.3268718,2.38583043 C84.1323534,2.38583043 87.0086357,2.35934959 89.8052672,2.35934959 C98.6465166,2.35934959 98.6730669,14.9730546 89.8052672,15.0524971 L84.71646,15.0524971 Z M84.71646,11.9454123 L89.8052672,11.9454123 C94.1506661,11.9454123 94.1241158,5.59001161 89.8052672,5.59001161 L84.71646,5.59001161 L84.71646,11.9454123 Z M102.887154,15.0524971 L102.887154,18.3979094 C102.887154,19.4659698 102.019844,20.3310105 100.948982,20.3310105 L99.4975655,20.3310105 L99.4975655,2.38583043 C102.303047,2.38583043 105.179329,2.35934959 107.975961,2.35934959 C116.81721,2.35934959 116.843761,14.9730546 107.975961,15.0524971 L102.887154,15.0524971 Z M102.887154,11.9454123 L107.975961,11.9454123 C112.32136,11.9454123 112.294809,5.59001161 107.975961,5.59001161 L102.887154,5.59001161 L102.887154,11.9454123 Z M133.72234,11.2039489 C133.801991,15.7409988 131.023059,20.3310105 124.721788,20.3310105 C122.509264,20.3310105 119.863084,20.3310105 117.650559,20.3310105 L117.650559,2.38583043 C119.863084,2.38583043 122.509264,2.38583043 124.721788,2.38583043 C130.899158,2.38583043 133.651539,6.76399535 133.72234,11.2039489 Z M121.022447,17.0738676 L124.721788,17.0738676 C128.810534,17.0738676 130.430103,14.099187 130.350452,11.1774681 C130.270801,8.37932636 128.624682,5.59001161 124.721788,5.59001161 L121.022447,5.59001161 L121.022447,17.0738676 Z M142.662379,9.79163763 L147.441433,2.38583043 L151.530179,2.38583043 L151.530179,2.5358885 L144.361599,12.9163763 L144.361599,18.3890825 C144.361599,19.4571429 143.494289,20.3221835 142.423427,20.3221835 L140.97201,20.3221835 L140.97201,12.9163763 L134.060083,2.5358885 L134.060083,2.38583043 L138.095728,2.38583043 L142.662379,9.79163763 Z M166.010381,14.4610918 L166.010381,4.31893148 C166.010381,3.25087108 166.877691,2.38583043 167.948553,2.38583043 L169.399969,2.38583043 L169.399969,20.3310105 L166.647588,20.3310105 L157.089481,8.37932636 L157.089481,18.3890825 C157.089481,19.4571429 156.222171,20.3221835 155.151309,20.3221835 L153.699893,20.3221835 L153.699893,2.38583043 L156.452274,2.38583043 L166.010381,14.4610918 Z M186.517501,16.9414634 L177.109845,16.9414634 L175.569928,20.3221835 L171.897137,20.3221835 L179.968427,2.37700348 L183.667769,2.37700348 L191.73906,20.3221835 L188.039718,20.3221835 L186.517501,16.9414634 Z M181.809248,6.15493612 L178.463911,13.7990708 L185.145736,13.7990708 L181.809248,6.15493612 Z M209.874353,7.32891986 L204.015587,15.1231127 L203.34298,15.1231127 L197.608115,7.30243902 L197.608115,18.4155633 C197.608115,19.4836237 196.740805,20.3486643 195.669943,20.3486643 L194.218527,20.3486643 L194.218527,2.41231127 L198.121421,2.41231127 L203.750084,10.1270616 L209.378748,2.41231127 L213.263941,2.41231127 L213.263941,18.4243902 C213.263941,19.4924506 212.396631,20.3574913 211.325769,20.3574913 L209.874353,20.3574913 L209.874353,7.32891986 Z M218.017884,20.3310105 L218.017884,4.31893148 C218.017884,3.25087108 218.885194,2.38583043 219.956056,2.38583043 L221.380922,2.38583043 L221.380922,18.3890825 C221.380922,19.4571429 220.513612,20.3221835 219.44275,20.3221835 L218.017884,20.3221835 L218.017884,20.3310105 Z M241.064982,18.0713124 C239.215312,19.8896632 236.825785,20.7370499 234.223855,20.7370499 C227.54203,20.7370499 224.709998,16.1470383 224.683448,11.4775842 C224.656898,6.78164925 227.719032,2.01509872 234.223855,2.01509872 C236.666483,2.01509872 238.976359,2.94192799 240.82603,4.76027875 L238.560404,6.94053426 C237.374491,5.78420441 235.781473,5.24576074 234.215005,5.24576074 C229.869606,5.24576074 227.993385,8.47642276 228.019936,11.4775842 C228.046486,14.4522648 229.763405,17.5505226 234.215005,17.5505226 C235.781473,17.5505226 237.560343,16.9061556 238.737406,15.7321719 L241.064982,18.0713124 Z M254.660175,6.75516841 C254.049518,5.7224158 252.367999,4.73379791 250.412127,4.71614402 C247.889848,4.69849013 246.677385,5.73124274 246.668535,7.0641115 C246.650834,8.62648084 248.500505,9.07665505 250.65993,9.35911731 C254.412372,9.85342625 257.899311,10.859698 257.85506,15.1407666 C257.81966,19.1393728 254.26192,20.8253194 250.243975,20.7900116 C246.571184,20.7547038 243.748002,19.6072009 242.447037,16.3147503 L245.287919,14.8759582 C246.066728,16.853194 248.137651,17.8065041 250.323626,17.824158 C252.4565,17.8418118 254.465472,17.0562137 254.483173,15.1054588 C254.500873,13.4106852 252.730853,12.7045296 250.341326,12.4308943 C246.668535,11.9630662 243.287797,10.9567944 243.323197,6.93170732 C243.358597,3.24204413 247.022539,1.75911731 250.332476,1.75911731 C253.137957,1.78559814 256.03194,2.60650407 257.368305,5.38699187 L254.660175,6.75516841 Z M189.618915,38.9522711 C189.627934,39.045842 189.663006,39.1433526 189.724132,39.2457881 C189.78626,39.3482235 189.869431,39.4240651 189.973645,39.471343 C189.766218,39.6033272 189.608895,39.7520555 189.501674,39.9175282 C189.340342,40.1657371 189.323307,40.2839319 189.323307,40.2839319 C189.323307,40.2839319 189.086821,40.2859018 188.615852,40.2908266 C188.538693,40.0672415 188.446504,39.899799 188.338281,39.7894839 C188.230059,39.6791688 188.105803,39.583628 187.966516,39.4999068 C188.062714,39.4575537 188.135865,39.405351 188.183964,39.3442837 C188.232063,39.2842014 188.271143,39.1532022 188.300203,38.9522711 C188.372351,38.9818198 188.457526,39.0596314 188.557733,39.1866907 C188.658941,39.3127651 188.80424,39.5511245 188.992627,39.9027538 C189.148949,39.5649139 189.282223,39.3265545 189.39245,39.1866907 C189.503678,39.0468269 189.578833,38.9690154 189.618915,38.9522711 Z M186.107292,38.7291786 C186.107292,38.7291786 186.070216,38.899576 186.107292,39.0256504 C186.14537,39.1517248 186.289667,39.2502204 186.289667,39.2502204 C186.289667,39.2502204 184.651297,39.3388664 183.842634,39.2502204 C183.03397,39.1615743 182.713311,38.80896 182.586049,38.4652103 C182.457785,38.1234305 182.466804,37.8821162 182.466804,37.8821162 L182.903702,37.8821162 C182.969838,38.0928969 183.130168,38.3942934 183.294506,38.5124882 C183.402729,38.5902997 183.596127,38.7015998 184.000959,38.7291786 C184.405792,38.7567573 186.107292,38.7291786 186.107292,38.7291786 Z M191.803609,38.7291786 C191.803609,38.7291786 193.505109,38.7567573 193.909942,38.7291786 C194.314775,38.7015998 194.501158,38.5814351 194.616395,38.5124882 C194.807789,38.3992182 194.9591,38.1204756 195.026238,37.909695 L195.533307,37.909695 C195.533307,37.909695 195.538291,38.0830473 195.410028,38.425812 C195.282766,38.7685768 194.876931,39.1615743 194.068268,39.2502204 C193.619344,39.2994682 193.164408,39.2945434 192.714483,39.2876487 C192.378792,39.2827239 192.032079,39.2866638 191.698393,39.2521903 C191.783568,39.1704389 191.805613,38.9054857 191.803609,38.7291786 Z M191.005067,39.6371112 L191.501087,41.4228367 C191.904918,42.8943613 190.474976,43.3769898 189.955909,42.1310202 C190.051104,43.9955423 187.930743,43.9955423 188.025939,42.1310202 C187.507873,43.3769898 186.048872,42.8943613 186.452703,41.4228367 L186.950727,39.6371112 L187.2293,39.6371112 C187.837551,39.6371112 188.282466,39.9621467 188.428767,40.5610001 L189.533039,40.5550903 C189.67934,39.955252 190.104214,39.6371112 190.713467,39.6371112 L191.005067,39.6371112 Z M188.977496,34.4560446 C190.123854,34.4560446 190.923499,35.3415203 190.923499,36.6101438 C190.923499,36.9450289 190.854357,37.2937034 190.717074,37.6473027 C190.665969,37.7812567 190.672984,37.7812567 190.614864,37.7930762 C190.404431,37.8364143 190.396415,37.9280152 190.272159,37.9427895 C190.007615,37.9743081 189.8543,37.9526391 189.737058,38.0619692 C189.657896,38.1368259 189.608795,38.2727499 189.598774,38.3801101 C189.592762,38.4431473 189.587751,38.5101243 189.584745,38.5800562 C189.581739,38.6430934 189.580737,38.5899057 189.580737,38.6549129 C189.130811,38.921836 188.977496,39.3729459 188.977496,39.3729459 C188.977496,39.3729459 188.898333,39.2084582 188.884304,39.1867892 C188.878292,39.1779246 188.873282,39.1700449 188.867269,39.1621653 C188.773076,39.0193466 188.661847,38.877513 188.528573,38.7671979 C188.35221,38.6204394 188.368243,38.6982509 188.368243,38.651958 C188.368243,38.5889208 188.367241,38.6421084 188.364235,38.5800562 C188.361228,38.5101243 188.356218,38.4431473 188.350206,38.381095 C188.340185,38.2727499 188.291084,38.1368259 188.211921,38.0619692 C188.09468,37.9526391 187.940363,37.9743081 187.675819,37.9427895 C187.611687,37.9349099 187.580623,37.9043762 187.528516,37.8708877 C187.463382,37.8285346 187.368186,37.7891364 187.281006,37.7989859 C187.144726,37.4473566 187.031493,36.9450289 187.031493,36.6101438 C187.031493,35.3415203 187.831138,34.4560446 188.977496,34.4560446 Z M192.15884,31.468968 C192.381298,31.6669442 192.584716,31.8885594 192.753062,32.1239639 L191.423327,32.8843501 C191.254981,32.683419 191.116696,32.3662631 191.104672,31.9801603 C191.095653,31.6649743 191.17181,31.3044803 191.384247,30.9242873 C191.651797,31.0690758 191.917343,31.2542476 192.15884,31.468968 Z M186.797712,38.5425294 C186.79671,38.5996568 186.795708,38.6557993 186.795708,38.7139117 C186.794706,38.7710392 186.794706,38.8281666 186.795708,38.8862791 C186.795708,38.9434065 186.79671,39.0015189 186.797712,39.0576614 C186.797712,39.0645561 186.797712,39.0724358 186.797712,39.0803154 C186.793704,39.1285783 186.773663,39.1709314 186.742599,39.2004801 C186.714541,39.2280589 186.676463,39.2448031 186.635378,39.2457881 L186.622352,39.2457881 C186.566236,39.2418482 186.510121,39.2152544 186.467032,39.1758562 C186.423943,39.1364579 186.394884,39.0852402 186.390875,39.0310676 C186.385865,38.9759101 186.382859,38.9246924 186.381857,38.8734746 C186.379853,38.820287 186.379853,38.7680843 186.380855,38.7148967 C186.381857,38.663679 186.383861,38.6104913 186.385865,38.5563187 C186.388871,38.5070709 186.39288,38.4538833 186.398892,38.3977408 C186.403902,38.3435682 186.433964,38.2913655 186.477053,38.2519673 C186.519139,38.212569 186.573251,38.1859752 186.628364,38.1820354 L186.640389,38.1820354 C186.681473,38.1830203 186.719552,38.1997646 186.747609,38.2273434 C186.777671,38.257877 186.797712,38.3002301 186.801721,38.348493 C186.801721,38.3563726 186.801721,38.3632673 186.801721,38.370162 C186.799716,38.4263045 186.798714,38.483432 186.797712,38.5425294 Z M187.421095,38.2944189 C187.424101,38.3682906 187.426105,38.4421623 187.427107,38.5150491 C187.428109,38.5889208 187.429111,38.6627925 187.429111,38.7356793 C187.429111,38.808566 187.428109,38.8834227 187.426105,38.9572944 C187.425103,39.0291962 187.422097,39.1030679 187.420093,39.1779246 C187.418088,39.2271724 187.394039,39.2714954 187.356963,39.3049839 C187.319886,39.3374875 187.271787,39.3581716 187.21968,39.3591565 C187.168575,39.3581716 187.119474,39.3374875 187.082398,39.303999 C187.045322,39.2714954 187.021272,39.2261874 187.019268,39.1779246 C187.017264,39.1030679 187.01526,39.0301812 187.01526,38.9572944 C187.014258,38.8834227 187.014258,38.808566 187.014258,38.7346943 C187.01526,38.6618075 187.01526,38.5879358 187.017264,38.5140641 C187.018266,38.4401924 187.02027,38.3663207 187.022274,38.291464 C187.024278,38.2422162 187.047326,38.1978932 187.084402,38.1653896 C187.120476,38.1328861 187.168575,38.113187 187.218678,38.112202 C187.271787,38.113187 187.320888,38.134856 187.357965,38.1673595 C187.395041,38.1998631 187.420093,38.2451711 187.421095,38.2944189 Z M188.052694,38.9138578 C188.05069,38.9709853 188.045679,39.0261428 188.040669,39.0803154 C188.033655,39.1394128 188.002591,39.1955553 187.957498,39.2388934 C187.913407,39.2802615 187.859296,39.3088253 187.804183,39.31375 C187.799172,39.314735 187.794162,39.314735 187.790154,39.314735 C187.752075,39.3127651 187.717003,39.2970058 187.689948,39.269427 C187.658884,39.2379084 187.639845,39.1935854 187.635836,39.1423677 C187.634834,39.1325181 187.634834,39.1226685 187.634834,39.1138039 C187.636838,39.0547066 187.638842,38.9936393 187.639845,38.932572 C187.640847,38.8724897 187.641849,38.8114224 187.642851,38.7503551 C187.642851,38.6892878 187.641849,38.6292055 187.641849,38.5691232 C187.640847,38.5080559 187.638842,38.4469886 187.636838,38.3878912 C187.636838,38.3800116 187.636838,38.370162 187.63784,38.3612974 C187.641849,38.3090947 187.660888,38.2637868 187.692954,38.2322682 C187.719007,38.2027195 187.756084,38.1859752 187.796166,38.1849903 L187.808191,38.1849903 C187.863304,38.1889301 187.918418,38.2165089 187.961506,38.2568921 C188.005597,38.2992452 188.036661,38.3544027 188.041671,38.4125151 C188.047683,38.4716125 188.051692,38.5257851 188.053696,38.5789727 C188.056702,38.6361002 188.057704,38.6912577 188.056702,38.7464153 C188.056702,38.8015728 188.0557,38.8567304 188.052694,38.9138578 Z M190.595023,38.167458 C190.6321,38.1349545 190.681201,38.1132855 190.73431,38.1123005 C190.784413,38.1132855 190.832512,38.1329846 190.867584,38.1645032 C190.905662,38.1979917 190.92871,38.2423147 190.930714,38.2915625 C190.932718,38.3664192 190.934722,38.4402909 190.935724,38.5141626 C190.936726,38.5880343 190.93873,38.661906 190.93873,38.7347928 C190.93873,38.8086645 190.93873,38.8835212 190.937728,38.9573929 C190.937728,39.0292947 190.935724,39.1031664 190.93372,39.1780231 C190.931716,39.2262859 190.907666,39.2715939 190.869588,39.3040975 C190.833514,39.336601 190.783411,39.3582701 190.733308,39.359255 C190.681201,39.3582701 190.6321,39.336601 190.596025,39.3050824 C190.558949,39.2715939 190.533898,39.2272709 190.532895,39.1780231 C190.530891,39.1031664 190.528887,39.0292947 190.526883,38.9573929 C190.524879,38.8835212 190.523877,38.8086645 190.523877,38.7357778 C190.523877,38.662891 190.524879,38.5890193 190.525881,38.5151476 C190.526883,38.4422608 190.528887,38.3683891 190.531893,38.2935324 C190.532895,38.2452696 190.557947,38.1999616 190.595023,38.167458 Z M191.315505,38.1822324 L191.326528,38.1822324 C191.381641,38.1861722 191.436755,38.212766 191.478841,38.2521643 C191.52193,38.2915625 191.551992,38.3437652 191.557002,38.3969528 C191.563014,38.4540803 191.567023,38.5072679 191.570029,38.5565157 C191.572033,38.6106883 191.574037,38.663876 191.575039,38.7150937 C191.576041,38.7672964 191.576041,38.820484 191.574037,38.8736716 C191.573035,38.9248893 191.570029,38.9761071 191.565019,39.0312646 C191.56101,39.0854372 191.530948,39.13567 191.488862,39.1750682 C191.445773,39.2144665 191.389658,39.2410603 191.333542,39.2459851 L191.321518,39.2459851 C191.279431,39.2450001 191.241353,39.2282559 191.212293,39.2006771 C191.182231,39.1711284 191.161188,39.1287753 191.158182,39.0805124 C191.158182,39.0726328 191.158182,39.0647531 191.158182,39.0578584 C191.159184,39.0017159 191.159184,38.9436035 191.160186,38.8854911 L191.160186,38.7141087 C191.159184,38.6559963 191.158182,38.5988688 191.158182,38.5427263 C191.15718,38.483629 191.156178,38.4265015 191.154173,38.370359 L191.154173,38.34869 C191.158182,38.3004271 191.177221,38.258074 191.207283,38.2275404 C191.236342,38.1999616 191.274421,38.1832173 191.315505,38.1822324 Z M189.993787,38.2570891 C190.036875,38.2157209 190.092991,38.1881421 190.147102,38.1851873 L190.158125,38.1851873 C190.199209,38.1861722 190.236285,38.2029165 190.263341,38.2314802 C190.293403,38.2639837 190.314446,38.3102767 190.318454,38.3614944 L190.318454,38.3880882 C190.31645,38.4471856 190.314446,38.5082529 190.314446,38.5693202 C190.313444,38.6303874 190.312442,38.6894848 190.313444,38.7505521 C190.313444,38.8116194 190.314446,38.8726867 190.315448,38.931784 C190.31645,38.9938363 190.318454,39.0539186 190.320458,39.113016 C190.321461,39.1228655 190.320458,39.1317301 190.320458,39.1425647 C190.315448,39.1937824 190.295407,39.2381054 190.265345,39.269624 C190.239292,39.2962178 190.203217,39.3129621 190.164137,39.313947 C190.161131,39.314932 190.157123,39.313947 190.15111,39.313947 C190.096999,39.3090223 190.040883,39.2804585 189.997795,39.2390904 C189.952702,39.1957523 189.921638,39.1386248 189.914624,39.0805124 C189.909613,39.0263398 189.905605,38.9701973 189.902599,38.9140548 C189.899593,38.8569274 189.898591,38.8017698 189.898591,38.7466123 C189.897589,38.6914547 189.898591,38.6362972 189.901597,38.5791697 C189.903601,38.5259821 189.907609,38.4718095 189.91262,38.4117272 C189.918632,38.3536148 189.949696,38.2994422 189.993787,38.2570891 Z M189.705494,31.133295 C189.705494,31.2583844 189.601279,31.3608198 189.474017,31.3608198 C189.345754,31.3608198 189.242541,31.2583844 189.242541,31.133295 C189.242541,31.0072206 189.345754,30.9047851 189.474017,30.9047851 C189.602281,30.9047851 189.705494,31.0072206 189.705494,31.133295 Z M189.243142,32.1393292 C189.637955,32.1393292 189.95661,31.8251282 189.95661,31.4370554 C189.95661,31.0489827 189.637955,30.7337967 189.243142,30.7337967 C188.849332,30.7337967 188.529675,31.0489827 188.529675,31.4370554 C188.529675,31.8251282 188.849332,32.1393292 189.243142,32.1393292 Z M191.377533,33.35772 C192.029875,33.8029202 192.434707,34.5170134 192.434707,35.5728865 C192.434707,36.3795656 192.151124,37.2670111 191.708213,38.0490663 C191.595982,37.9732247 191.432646,37.9742096 191.208185,37.9397362 C191.129022,37.9269317 191.059879,37.8796538 190.96769,37.8432105 C191.122007,37.4452882 191.20117,37.0513057 191.20117,36.6720976 C191.20117,35.2281518 190.28729,34.2195567 188.977596,34.2195567 C187.668904,34.2195567 186.755024,35.2281518 186.755024,36.6720976 C186.755024,37.0503207 186.833185,37.4443032 186.986501,37.8412406 C186.891305,37.8776839 186.821161,37.9269317 186.739994,37.9397362 C186.515532,37.9742096 186.353198,37.9732247 186.239965,38.0490663 C185.798056,37.2670111 185.513471,36.3795656 185.513471,35.5728865 C185.513471,34.5170134 185.919305,33.8029202 186.570645,33.35772 C186.775066,33.2316456 186.979486,33.1065562 187.183907,32.9804818 C187.33622,32.8819862 187.353255,32.7864454 187.11276,32.8071295 L186.570645,32.8514525 L186.570645,31.8832406 C186.570645,30.5811285 187.652871,29.5173758 188.97459,29.5173758 C188.97459,29.5173758 190.473674,29.5912476 190.763269,28.9411765 C191.04084,29.4661581 190.895541,29.9044636 190.613962,30.1575974 C190.827401,30.2511682 191.023805,30.4816479 191.164094,30.7623605 C190.606948,31.492213 190.60294,32.6997693 191.377533,33.35772 Z M253.675243,39.8025753 L253.675243,32.639726 L250.962902,32.639726 L250.962902,31.160274 L258,31.160274 L258,32.639726 L255.28766,32.639726 L255.28766,39.8025753 L253.675243,39.8025753 Z M225.935576,39.8025753 L225.935576,31.160274 L227.548156,31.160274 L227.548156,34.8572603 L230.836685,31.160274 L232.840233,31.160274 L232.840233,31.2097534 L229.04035,35.3456438 L233.157895,39.7037808 L233.157895,39.8025753 L231.166239,39.8025753 L227.548156,35.9479452 L227.548156,39.8025753 L225.935576,39.8025753 Z M248.54053,31.1847671 L250.141055,31.1847671 L250.141055,36.1284384 C250.141055,38.6806575 248.589401,39.9876712 246.43924,39.9876712 C244.386658,39.9876712 242.639846,38.7281644 242.639846,36.1284384 L242.639846,31.1847671 L244.239882,31.1847671 L244.239882,36.1284384 C244.239882,37.681863 245.11956,38.5078904 246.451132,38.5078904 C247.783029,38.5078904 248.54053,37.6069041 248.54053,36.1284384 L248.54053,31.1847671 Z M237.328546,32.4794521 C235.312617,32.4794521 234.482462,34.1198356 234.518626,35.5738082 C234.554139,36.9909589 235.312617,38.5078904 237.328546,38.5078904 C239.344474,38.5078904 240.102952,36.9784658 240.126573,35.5613151 C240.150683,34.1076712 239.344474,32.4794521 237.328546,32.4794521 Z M237.328546,31 C240.273023,31 241.738664,33.2816438 241.714718,35.5369863 C241.69126,37.7676712 240.334275,40 237.328546,40 C234.323468,40 232.930156,37.8176438 232.930156,35.5489863 C232.930156,33.2806575 234.372176,31 237.328546,31 Z M220.731792,32.4794521 C218.715701,32.4794521 217.884731,34.1191781 217.92171,35.5738082 C217.957711,36.9914521 218.715701,38.5078904 220.731792,38.5078904 C222.747395,38.5078904 223.505221,36.9791233 223.529168,35.5613151 C223.553929,34.1071781 222.747395,32.4794521 220.731792,32.4794521 Z M220.731792,31 C223.676107,31 225.1424,33.2809863 225.117801,35.5369863 C225.093691,37.7683288 223.737358,40 220.731792,40 C217.726226,40 216.333402,37.8176438 216.333402,35.5489863 C216.333402,33.2806575 217.775097,31 220.731792,31 Z M211.279164,32.4794521 C209.263398,32.4794521 208.432265,34.1191781 208.469244,35.5738082 C208.505083,36.9911233 209.263398,38.5078904 211.279164,38.5078904 C213.295092,38.5078904 214.052919,36.9791233 214.076866,35.5613151 C214.101464,34.1071781 213.295092,32.4794521 211.279164,32.4794521 Z M211.279164,31 C214.223641,31 215.689771,33.2809863 215.665173,35.5369863 C215.641063,37.7683288 214.284567,40 211.279164,40 C208.27376,40 206.880774,37.8176438 206.880774,35.5489863 C206.880774,33.2806575 208.322631,31 211.279164,31 Z M203.068348,32.6768767 L200.612743,32.6768767 L200.612743,35.4503562 L203.068348,35.4503562 C204.094313,35.4503562 204.53464,34.758137 204.53464,34.0637808 C204.53464,33.3692603 204.082095,32.6768767 203.068348,32.6768767 Z M206.575005,39.6914521 L206.575005,39.8025753 L204.656655,39.8025753 L202.164397,36.9176438 L200.612743,36.9176438 L200.612743,39.8025753 L199,39.8025753 L199,31.160274 L203.068348,31.160274 C205.084276,31.160274 206.147383,32.5287671 206.147383,34.0267945 C206.147383,35.216274 205.609477,36.4123288 203.984842,36.7450411 L206.575005,39.6914521 Z M118.858,38 L120.541,30.08 L123.434,30.08 C123.947336,30.08 124.357998,30.1386661 124.666,30.256 C124.974002,30.3733339 125.203166,30.5346656 125.3535,30.74 C125.503834,30.9453344 125.59,31.181832 125.612,31.4495 C125.634,31.717168 125.612,31.9976652 125.546,32.291 C125.450666,32.7310022 125.283835,33.0939986 125.0455,33.38 C124.807165,33.6660014 124.526668,33.8914992 124.204,34.0565 C123.881332,34.2215008 123.533002,34.3369997 123.159,34.403 C122.784998,34.4690003 122.414668,34.502 122.048,34.502 L120.354,34.502 L119.606,38 L118.858,38 Z M122.202,33.864 C122.554002,33.864 122.872999,33.8420002 123.159,33.798 C123.445001,33.7539998 123.697999,33.6715006 123.918,33.5505 C124.138001,33.4294994 124.323166,33.264501 124.4735,33.0555 C124.623834,32.846499 124.735666,32.573335 124.809,32.236 C124.919001,31.7373308 124.838335,31.359668 124.567,31.103 C124.295665,30.8463321 123.804337,30.718 123.093,30.718 L121.157,30.718 L120.486,33.864 L122.202,33.864 Z M127.746,38.154 C127.379331,38.1466666 127.051168,38.0806673 126.7615,37.956 C126.471832,37.8313327 126.233501,37.6443346 126.0465,37.395 C125.859499,37.1456654 125.736667,36.8340019 125.678,36.46 C125.619333,36.0859981 125.641333,35.6496692 125.744,35.151 C125.832,34.7329979 125.969499,34.3425018 126.1565,33.9795 C126.343501,33.6164982 126.576332,33.2993347 126.855,33.028 C127.133668,32.7566653 127.454498,32.5421675 127.8175,32.3845 C128.180502,32.2268325 128.581998,32.148 129.022,32.148 C129.469336,32.148 129.841499,32.2268325 130.1385,32.3845 C130.435501,32.5421675 130.664666,32.754832 130.826,33.0225 C130.987334,33.290168 131.082667,33.6073315 131.112,33.974 C131.141333,34.3406685 131.112,34.7329979 131.024,35.151 C130.928666,35.6056689 130.778334,36.0163315 130.573,36.383 C130.367666,36.7496685 130.122001,37.0649987 129.836,37.329 C129.549999,37.5930013 129.229168,37.7964993 128.8735,37.9395 C128.517832,38.0825007 128.142002,38.154 127.746,38.154 Z M130.32,35.151 C130.386,34.813665 130.415333,34.4983348 130.408,34.205 C130.400667,33.9116652 130.343834,33.6568344 130.2375,33.4405 C130.131166,33.2241656 129.969834,33.0536673 129.7535,32.929 C129.537166,32.8043327 129.253002,32.742 128.901,32.742 C128.556332,32.742 128.246501,32.8098327 127.9715,32.9455 C127.696499,33.0811673 127.456334,33.2608322 127.251,33.4845 C127.045666,33.7081678 126.877001,33.9648319 126.745,34.2545 C126.612999,34.5441681 126.514,34.8429985 126.448,35.151 C126.374666,35.5030018 126.349,35.8274985 126.371,36.1245 C126.393,36.4215015 126.462666,36.6763323 126.58,36.889 C126.697334,37.1016677 126.864166,37.2666661 127.0805,37.384 C127.296834,37.5013339 127.562665,37.56 127.878,37.56 C128.222668,37.56 128.532499,37.4921673 128.8075,37.3565 C129.082501,37.2208327 129.320832,37.0393345 129.5225,36.812 C129.724168,36.5846655 129.890999,36.3280014 130.023,36.042 C130.155001,35.7559986 130.254,35.4590015 130.32,35.151 Z M136.634,37.12 L139.153,32.302 L139.824,32.302 L136.766,38 L136.062,38 L135.831,33.215 L135.809,33.215 L133.532,38 L132.74,38 L132.212,32.302 L132.872,32.302 L133.312,37.164 L135.666,32.302 L136.403,32.302 L136.634,37.12 Z M144.389,34.755 C144.447667,34.4763319 144.464167,34.2141679 144.4385,33.9685 C144.412833,33.7228321 144.345001,33.5101676 144.235,33.3305 C144.124999,33.1508324 143.967334,33.0078339 143.762,32.9015 C143.556666,32.7951661 143.307335,32.742 143.014,32.742 C142.720665,32.742 142.451168,32.7969995 142.2055,32.907 C141.959832,33.0170006 141.738001,33.1636658 141.54,33.347 C141.341999,33.5303343 141.169667,33.7429988 141.023,33.985 C140.876333,34.2270012 140.759,34.4836653 140.671,34.755 L144.389,34.755 Z M140.55,35.305 C140.484,35.6130015 140.462,35.9044986 140.484,36.1795 C140.506,36.4545014 140.575666,36.6928323 140.693,36.8945 C140.810334,37.0961677 140.977166,37.2574994 141.1935,37.3785 C141.409834,37.4995006 141.675665,37.56 141.991,37.56 C142.423669,37.56 142.817832,37.4463345 143.1735,37.219 C143.529168,36.9916655 143.802332,36.6690021 143.993,36.251 L144.73,36.251 C144.590666,36.5223347 144.431168,36.7734988 144.2515,37.0045 C144.071832,37.2355012 143.864668,37.4371658 143.63,37.6095 C143.395332,37.7818342 143.131335,37.9156662 142.838,38.011 C142.544665,38.1063338 142.218335,38.154 141.859,38.154 C141.404331,38.154 141.028501,38.0770008 140.7315,37.923 C140.434499,37.7689992 140.207167,37.558168 140.0495,37.2905 C139.891833,37.022832 139.802,36.7075018 139.78,36.3445 C139.758,35.9814982 139.791,35.5910021 139.879,35.173 C139.967,34.7549979 140.109999,34.3626685 140.308,33.996 C140.506001,33.6293315 140.746165,33.3085014 141.0285,33.0335 C141.310835,32.7584986 141.629832,32.5421675 141.9855,32.3845 C142.341168,32.2268325 142.724331,32.148 143.135,32.148 C143.919671,32.148 144.478832,32.4174973 144.8125,32.9565 C145.146168,33.4955027 145.199334,34.2783282 144.972,35.305 L140.55,35.305 Z M146.38,38 L145.72,38 L146.93,32.302 L147.59,32.302 L147.359,33.369 L147.381,33.369 C147.659668,32.9143311 147.963998,32.5971676 148.294,32.4175 C148.624002,32.2378324 149.027331,32.148 149.504,32.148 L149.35,32.863 C148.983331,32.8556666 148.666168,32.9143327 148.3985,33.039 C148.130832,33.1636673 147.903501,33.3323323 147.7165,33.545 C147.529499,33.7576677 147.375501,34.0088319 147.2545,34.2985 C147.133499,34.5881681 147.04,34.8906651 146.974,35.206 L146.38,38 Z M153.97,34.755 C154.028667,34.4763319 154.045167,34.2141679 154.0195,33.9685 C153.993833,33.7228321 153.926001,33.5101676 153.816,33.3305 C153.705999,33.1508324 153.548334,33.0078339 153.343,32.9015 C153.137666,32.7951661 152.888335,32.742 152.595,32.742 C152.301665,32.742 152.032168,32.7969995 151.7865,32.907 C151.540832,33.0170006 151.319001,33.1636658 151.121,33.347 C150.922999,33.5303343 150.750667,33.7429988 150.604,33.985 C150.457333,34.2270012 150.34,34.4836653 150.252,34.755 L153.97,34.755 Z M150.131,35.305 C150.065,35.6130015 150.043,35.9044986 150.065,36.1795 C150.087,36.4545014 150.156666,36.6928323 150.274,36.8945 C150.391334,37.0961677 150.558166,37.2574994 150.7745,37.3785 C150.990834,37.4995006 151.256665,37.56 151.572,37.56 C152.004669,37.56 152.398832,37.4463345 152.7545,37.219 C153.110168,36.9916655 153.383332,36.6690021 153.574,36.251 L154.311,36.251 C154.171666,36.5223347 154.012168,36.7734988 153.8325,37.0045 C153.652832,37.2355012 153.445668,37.4371658 153.211,37.6095 C152.976332,37.7818342 152.712335,37.9156662 152.419,38.011 C152.125665,38.1063338 151.799335,38.154 151.44,38.154 C150.985331,38.154 150.609501,38.0770008 150.3125,37.923 C150.015499,37.7689992 149.788167,37.558168 149.6305,37.2905 C149.472833,37.022832 149.383,36.7075018 149.361,36.3445 C149.339,35.9814982 149.372,35.5910021 149.46,35.173 C149.548,34.7549979 149.690999,34.3626685 149.889,33.996 C150.087001,33.6293315 150.327165,33.3085014 150.6095,33.0335 C150.891835,32.7584986 151.210832,32.5421675 151.5665,32.3845 C151.922168,32.2268325 152.305331,32.148 152.716,32.148 C153.500671,32.148 154.059832,32.4174973 154.3935,32.9565 C154.727168,33.4955027 154.780334,34.2783282 154.553,35.305 L150.131,35.305 Z M160.273,35.129 C160.339,34.8063317 160.359167,34.5001681 160.3335,34.2105 C160.307833,33.9208319 160.236334,33.6678344 160.119,33.4515 C160.001666,33.2351656 159.838501,33.062834 159.6295,32.9345 C159.420499,32.806166 159.165668,32.742 158.865,32.742 C158.520332,32.742 158.208668,32.8098327 157.93,32.9455 C157.651332,33.0811673 157.405668,33.2663322 157.193,33.501 C156.980332,33.7356678 156.804334,34.0088318 156.665,34.3205 C156.525666,34.6321682 156.426667,34.9676649 156.368,35.327 C156.294666,35.6863351 156.278166,36.0034986 156.3185,36.2785 C156.358834,36.5535014 156.444999,36.7863324 156.577,36.977 C156.709001,37.1676676 156.883166,37.3124995 157.0995,37.4115 C157.315834,37.5105005 157.563332,37.56 157.842,37.56 C158.150002,37.56 158.437832,37.4976673 158.7055,37.373 C158.973168,37.2483327 159.211499,37.0778344 159.4205,36.8615 C159.629501,36.6451656 159.805499,36.3885015 159.9485,36.0915 C160.091501,35.7944985 160.199666,35.4736684 160.273,35.129 Z M161.351,30.08 L162.011,30.08 L160.328,38 L159.668,38 L159.877,36.999 L159.855,36.999 C159.722999,37.1896676 159.565334,37.3564993 159.382,37.4995 C159.198666,37.6425007 159.008001,37.7616662 158.81,37.857 C158.611999,37.9523338 158.412168,38.0256664 158.2105,38.077 C158.008832,38.1283336 157.816334,38.154 157.633,38.154 C157.170998,38.154 156.793335,38.0770008 156.5,37.923 C156.206665,37.7689992 155.986667,37.558168 155.84,37.2905 C155.693333,37.022832 155.610833,36.7056685 155.5925,36.339 C155.574167,35.9723315 155.609,35.5800021 155.697,35.162 C155.785,34.765998 155.916999,34.3846685 156.093,34.018 C156.269001,33.6513315 156.490832,33.3305014 156.7585,33.0555 C157.026168,32.7804986 157.337832,32.5605008 157.6935,32.3955 C158.049168,32.2304992 158.443331,32.148 158.876,32.148 C159.279335,32.148 159.647832,32.2378324 159.9815,32.4175 C160.315168,32.5971676 160.547999,32.8629982 160.68,33.215 L161.351,30.08 Z M166.389,35.129 C166.315666,35.4736684 166.29,35.7944985 166.312,36.0915 C166.334,36.3885015 166.403666,36.6451656 166.521,36.8615 C166.638334,37.0778344 166.805166,37.2483327 167.0215,37.373 C167.237834,37.4976673 167.499998,37.56 167.808,37.56 C168.086668,37.56 168.354332,37.5105005 168.611,37.4115 C168.867668,37.3124995 169.102332,37.1676676 169.315,36.977 C169.527668,36.7863324 169.712833,36.5535014 169.8705,36.2785 C170.028167,36.0034986 170.147333,35.6863351 170.228,35.327 C170.316,34.9676649 170.356333,34.6321682 170.349,34.3205 C170.341667,34.0088318 170.283001,33.7356678 170.173,33.501 C170.062999,33.2663322 169.896168,33.0811673 169.6725,32.9455 C169.448832,32.8098327 169.168335,32.742 168.831,32.742 C168.530332,32.742 168.248001,32.806166 167.984,32.9345 C167.719999,33.062834 167.479834,33.2351656 167.2635,33.4515 C167.047166,33.6678344 166.863834,33.9208319 166.7135,34.2105 C166.563166,34.5001681 166.455,34.8063317 166.389,35.129 Z M165.784,38 L165.124,38 L166.807,30.08 L167.467,30.08 L166.796,33.215 C167.082001,32.8629982 167.430331,32.5971676 167.841,32.4175 C168.251669,32.2378324 168.658665,32.148 169.062,32.148 C169.494669,32.148 169.853999,32.2304992 170.14,32.3955 C170.426001,32.5605008 170.644166,32.7804986 170.7945,33.0555 C170.944834,33.3305014 171.032833,33.6513315 171.0585,34.018 C171.084167,34.3846685 171.053,34.765998 170.965,35.162 C170.877,35.5800021 170.745001,35.9723315 170.569,36.339 C170.392999,36.7056685 170.173001,37.022832 169.909,37.2905 C169.644999,37.558168 169.335168,37.7689992 168.9795,37.923 C168.623832,38.0770008 168.215002,38.154 167.753,38.154 C167.569666,38.154 167.388168,38.1283336 167.2085,38.077 C167.028832,38.0256664 166.860167,37.9523338 166.7025,37.857 C166.544833,37.7616662 166.405501,37.6425007 166.2845,37.4995 C166.163499,37.3564993 166.073667,37.1896676 166.015,36.999 L165.993,36.999 L165.784,38 Z M171.394,39.551 C171.474667,39.5656667 171.560833,39.5803333 171.6525,39.595 C171.744167,39.6096667 171.837666,39.617 171.933,39.617 C172.116334,39.617 172.279499,39.5583339 172.4225,39.441 C172.565501,39.3236661 172.691999,39.1825008 172.802,39.0175 C172.912001,38.8524992 173.012833,38.6801676 173.1045,38.5005 C173.196167,38.3208324 173.286,38.1686673 173.374,38.044 L172.384,32.302 L173.121,32.302 L173.913,37.197 L176.773,32.302 L177.488,32.302 L174.166,37.923 C173.953332,38.2823351 173.759001,38.6049986 173.583,38.891 C173.406999,39.1770014 173.231001,39.4208323 173.055,39.6225 C172.878999,39.8241677 172.695668,39.9781661 172.505,40.0845 C172.314332,40.1908339 172.105334,40.244 171.878,40.244 C171.760666,40.244 171.648834,40.2366667 171.5425,40.222 C171.436166,40.2073333 171.342667,40.1890001 171.262,40.167 L171.394,39.551 Z" id="Combined-Shape"></path>
            </g>
        </g>
    </g>
</svg>