<svg width="245" height="42.99999999999999" xmlns="http://www.w3.org/2000/svg">
 <!-- Generator: sketchtool 53.2 (72643) - https://sketchapp.com -->

 <title>263A717A-C268-41D7-8E3B-E13241495C95</title>
 <desc>Created with sketchtool.</desc>
 <g>
  <title>background</title>
  <rect fill="none" id="canvas_background" height="45" width="247" y="-1" x="-1"/>
 </g>
 <g>
  <title>Layer 1</title>
  <g fill-rule="evenodd" fill="none" id="uri">
   <g fill-rule="nonzero" fill="#FFFFFF" id="Left_panel_source_view_appdynamics">
    <g id="AppD_Logo-Copy">
     <path id="Combined-Shape" d="m56.445205,14.965851l-9.40765,0l-1.53992,3.38955l-3.67279,0l8.07129,-17.94518l3.69934,0l8.07129,17.94518l-3.69934,0l-1.52222,-3.38955zm-4.6994,-10.78652l-3.34534,7.64413l6.68183,0l-3.33649,-7.64413zm16.75125,8.89756l0,3.34541c0,1.06806 -0.86731,1.9331 -1.93817,1.9331l-1.45142,0l0,-17.94518c2.80548,0 5.68177,-0.02648 8.4784,-0.02648c8.84125,0 8.8678,12.6137 0,12.69315l-5.08881,0zm0,-3.10709l5.08881,0c4.3454,0 4.31885,-6.3554 0,-6.3554l-5.08881,0l0,6.3554zm18.17069,3.10709l0,3.34541c0,1.06806 -0.86731,1.9331 -1.93817,1.9331l-1.45141,0l0,-17.94518c2.80548,0 5.68176,-0.02648 8.47839,-0.02648c8.84125,0 8.8678,12.6137 0,12.69315l-5.08881,0zm0,-3.10709l5.08881,0c4.3454,0 4.31885,-6.3554 0,-6.3554l-5.08881,0l0,6.3554zm30.83519,-0.74146c0.07965,4.53705 -2.69928,9.12706 -9.00055,9.12706c-2.21253,0 -4.85871,0 -7.07123,0l0,-17.94518c2.21252,0 4.8587,0 7.07123,0c6.17737,0 8.92975,4.37817 9.00055,8.81812zm-12.69989,5.86992l3.69934,0c4.08874,0 5.70831,-2.97468 5.62866,-5.8964c-0.07965,-2.79814 -1.72577,-5.58746 -5.62866,-5.58746l-3.69934,0l0,11.48386zm21.63993,-7.28223l4.77905,-7.40581l4.08875,0l0,0.15006l-7.16858,10.38049l0,5.4727c0,1.06806 -0.86731,1.9331 -1.93817,1.9331l-1.45142,0l0,-7.4058l-6.91193,-10.38049l0,-0.15006l4.03565,0l4.56665,7.40581zm23.348,4.66945l0,-10.14216c0,-1.06806 0.86731,-1.9331 1.93817,-1.9331l1.45142,0l0,17.94518l-2.75238,0l-9.55811,-11.95168l0,10.00975c0,1.06806 -0.86731,1.9331 -1.93817,1.9331l-1.45142,0l0,-17.93635l2.75238,0l9.55811,12.07526zm20.50712,2.48037l-9.40765,0l-1.53992,3.38072l-3.67279,0l8.07129,-17.94518l3.69934,0l8.07129,17.94518l-3.69934,0l-1.52222,-3.38072zm-4.70825,-10.78652l-3.34534,7.64413l6.68183,0l-3.33649,-7.64413zm28.0651,1.17398l-5.85876,7.79419l-0.67261,0l-5.73487,-7.82067l0,11.11312c0,1.06806 -0.86731,1.9331 -1.93817,1.9331l-1.45141,0l0,-17.93635l3.90289,0l5.62866,7.71475l5.62867,-7.71475l3.88519,0l0,16.01208c0,1.06806 -0.86731,1.9331 -1.93817,1.9331l-1.45142,0l0,-13.02857zm8.14353,13.00209l0,-16.01208c0,-1.06806 0.86731,-1.9331 1.93818,-1.9331l1.42486,0l0,16.00325c0,1.06806 -0.86731,1.9331 -1.93817,1.9331l-1.42487,0l0,0.00883zm23.0471,-2.2597c-1.84967,1.81835 -4.2392,2.66574 -6.84113,2.66574c-6.68182,0 -9.51385,-4.59001 -9.5404,-9.25947c-0.02655,-4.69593 3.03558,-9.46248 9.5404,-9.46248c2.44263,0 4.75251,0.92683 6.60218,2.74518l-2.26563,2.18025c-1.18591,-1.15633 -2.77893,-1.69477 -4.3454,-1.69477c-4.34539,0 -6.22162,3.23066 -6.19506,6.23182c0.02655,2.97468 1.74347,6.07294 6.19506,6.07294c1.56647,0 3.34534,-0.64436 4.52241,-1.81835l2.32757,2.33914zm13.5952,-11.31614c-0.61066,-1.03275 -2.29218,-2.02137 -4.24805,-2.03903c-2.52228,-0.01765 -3.73475,1.0151 -3.7436,2.34797c-0.0177,1.56237 1.83198,2.01255 3.9914,2.29501c3.75244,0.49431 7.23938,1.50058 7.19513,5.78165c-0.0354,3.9986 -3.59314,5.68455 -7.61108,5.64924c-3.6728,-0.03531 -6.49598,-1.18281 -7.79694,-4.47526l2.84088,-1.43879c0.77881,1.97723 2.84973,2.93054 5.03571,2.9482c2.13287,0.01765 4.14184,-0.76795 4.15954,-2.7187c0.0177,-1.69477 -1.75232,-2.40093 -4.14184,-2.67457c-3.6728,-0.46782 -7.05353,-1.4741 -7.01813,-5.49918c0.0354,-3.68967 3.69934,-5.17259 7.00928,-5.17259c2.80548,0.02648 5.69946,0.84738 7.03583,3.62787l-2.70813,1.36818zm-65.04127,32.1971c0.00902,0.09357 0.0441,0.19108 0.10522,0.29352c0.06213,0.10243 0.1453,0.17828 0.24952,0.22555c-0.20743,0.13199 -0.36476,0.28072 -0.47198,0.44619c-0.16133,0.24821 -0.17836,0.3664 -0.17836,0.3664c0,0 -0.23649,0.00197 -0.70746,0.0069c-0.07716,-0.22359 -0.16935,-0.39103 -0.27757,-0.50135c-0.10822,-0.11031 -0.23248,-0.20585 -0.37176,-0.28957c0.09619,-0.04236 0.16934,-0.09456 0.21744,-0.15563c0.0481,-0.06008 0.08718,-0.19108 0.11624,-0.39201c0.07215,0.02955 0.15733,0.10736 0.25753,0.23442c0.10121,0.12608 0.24651,0.36443 0.4349,0.71606c0.15632,-0.33784 0.28959,-0.5762 0.39982,-0.71606c0.11123,-0.13986 0.18638,-0.21767 0.22646,-0.23442zm-3.51162,-0.22309c0,0 -0.03707,0.1704 0,0.29647c0.03808,0.12607 0.18238,0.22457 0.18238,0.22457c0,0 -1.63837,0.08865 -2.44704,0c-0.80866,-0.08865 -1.12932,-0.44126 -1.25658,-0.78501c-0.12826,-0.34178 -0.11925,-0.58309 -0.11925,-0.58309l0.4369,0c0.06614,0.21078 0.22647,0.51217 0.39081,0.63037c0.10822,0.07781 0.30162,0.18911 0.70645,0.21669c0.40483,0.02758 2.10633,0 2.10633,0zm5.69632,0c0,0 1.7015,0.02758 2.10633,0c0.40483,-0.02758 0.59122,-0.14774 0.70646,-0.21669c0.19139,-0.11327 0.3427,-0.39201 0.40984,-0.6028l0.50707,0c0,0 0.00498,0.17336 -0.12328,0.51612c-0.12726,0.34277 -0.5331,0.73576 -1.34176,0.82441c-0.44893,0.04925 -0.90386,0.04432 -1.35379,0.03743c-0.33569,-0.00493 -0.6824,-0.00099 -1.01609,-0.03546c0.08518,-0.08175 0.10722,-0.3467 0.10522,-0.52301zm-0.79854,0.90793l0.49602,1.78573c0.40383,1.47152 -1.02611,1.95415 -1.54518,0.70818c0.09519,1.86452 -2.02517,1.86452 -1.92997,0c-0.51807,1.24597 -1.97707,0.76334 -1.57324,-0.70818l0.49803,-1.78573l0.27857,0c0.60825,0 1.05317,0.32504 1.19947,0.92389l1.10427,-0.00591c0.1463,-0.59984 0.57117,-0.91798 1.18043,-0.91798l0.2916,0zm-2.02757,-5.18107c1.14635,0 1.946,0.88548 1.946,2.1541c0,0.33489 -0.06914,0.68356 -0.20643,1.03716c-0.0511,0.13396 -0.04409,0.13396 -0.10221,0.14578c-0.21043,0.04333 -0.21845,0.13494 -0.3427,0.14971c-0.26455,0.03152 -0.41786,0.00985 -0.5351,0.11918c-0.07916,0.07486 -0.12827,0.21078 -0.13829,0.31814c-0.00601,0.06304 -0.01102,0.13001 -0.01403,0.19995c-0.003,0.06303 -0.004,0.00985 -0.004,0.07485c-0.44993,0.26693 -0.60324,0.71804 -0.60324,0.71804c0,0 -0.07917,-0.16449 -0.0932,-0.18616c-0.00601,-0.00887 -0.01102,-0.01675 -0.01703,-0.02462c-0.09419,-0.14282 -0.20542,-0.28466 -0.3387,-0.39497c-0.17636,-0.14676 -0.16033,-0.06895 -0.16033,-0.11524c0,-0.06304 -0.001,-0.00985 -0.004,-0.0719c-0.00301,-0.06994 -0.00802,-0.13691 -0.01403,-0.19896c-0.01003,-0.10835 -0.05913,-0.24427 -0.13829,-0.31913c-0.11724,-0.10933 -0.27156,-0.08766 -0.5361,-0.11918c-0.06413,-0.00788 -0.0952,-0.03841 -0.1473,-0.0719c-0.06514,-0.04236 -0.16033,-0.08175 -0.24751,-0.0719c-0.13628,-0.35163 -0.24952,-0.85396 -0.24952,-1.18885c0,-1.26862 0.79965,-2.1541 1.94601,-2.1541zm3.18134,-2.98707c0.22246,0.19797 0.42588,0.41959 0.59422,0.65499l-1.32973,0.76039c-0.16835,-0.20093 -0.30663,-0.51809 -0.31866,-0.90419c-0.00902,-0.31519 0.06714,-0.67568 0.27958,-1.05587c0.26755,0.14479 0.53309,0.32996 0.77459,0.54468zm-5.36113,7.07356c-0.001,0.05713 -0.002,0.11327 -0.002,0.17138c-0.001,0.05713 -0.001,0.11426 0,0.17237c0,0.05713 0.001,0.11524 0.002,0.17138c0,0.0069 0,0.01478 0,0.02266c-0.00401,0.04826 -0.02405,0.09061 -0.05511,0.12016c-0.02806,0.02758 -0.06614,0.04432 -0.10722,0.04531l-0.01303,0c-0.05611,-0.00394 -0.11223,-0.03054 -0.15532,-0.06993c-0.04309,-0.0394 -0.07215,-0.09062 -0.07616,-0.14479c-0.00501,-0.05516 -0.00801,-0.10638 -0.00901,-0.1576c-0.00201,-0.05318 -0.00201,-0.10539 -0.00101,-0.15857c0.00101,-0.05122 0.00301,-0.10441 0.00501,-0.15858c0.00301,-0.04925 0.00702,-0.10244 0.01303,-0.15858c0.00501,-0.05417 0.03507,-0.10637 0.07816,-0.14577c0.04209,-0.0394 0.0962,-0.06599 0.15131,-0.06993l0.01203,0c0.04108,0.00098 0.07916,0.01772 0.10722,0.0453c0.03006,0.03054 0.0501,0.07289 0.05411,0.12115c0,0.00788 0,0.01478 0,0.02167c-0.002,0.05614 -0.00301,0.11327 -0.00401,0.17237zm0.62339,-0.24811c0.003,0.07387 0.00501,0.14774 0.00601,0.22063c0.001,0.07387 0.002,0.14774 0.002,0.22063c0,0.07289 -0.001,0.14774 -0.003,0.22161c-0.00101,0.07191 -0.00401,0.14578 -0.00602,0.22063c-0.002,0.04925 -0.02605,0.09358 -0.06313,0.12706c-0.03707,0.03251 -0.08517,0.05319 -0.13728,0.05418c-0.0511,-0.00099 -0.10021,-0.02167 -0.13728,-0.05516c-0.03708,-0.0325 -0.06113,-0.07781 -0.06313,-0.12608c-0.00201,-0.07485 -0.00401,-0.14774 -0.00401,-0.22063c-0.001,-0.07387 -0.001,-0.14872 -0.001,-0.2226c0.001,-0.07288 0.001,-0.14675 0.003,-0.22063c0.00101,-0.07387 0.00301,-0.14774 0.00501,-0.2226c0.00201,-0.04924 0.02506,-0.09357 0.06213,-0.12607c0.03608,-0.0325 0.08418,-0.0522 0.13428,-0.05319c0.05311,0.00099 0.10221,0.02266 0.13929,0.05516c0.03707,0.0325 0.06212,0.07781 0.06313,0.12706zm0.63159,0.61944c-0.002,0.05713 -0.00701,0.11228 -0.01202,0.16646c-0.00701,0.05909 -0.03808,0.11524 -0.08317,0.15857c-0.04409,0.04137 -0.0982,0.06994 -0.15332,0.07486c-0.00501,0.00098 -0.01002,0.00098 -0.01403,0.00098c-0.03808,-0.00196 -0.07315,-0.01772 -0.1002,-0.0453c-0.03107,-0.03152 -0.0501,-0.07584 -0.05411,-0.12706c-0.00101,-0.00985 -0.00101,-0.0197 -0.00101,-0.02857c0.00201,-0.05909 0.00401,-0.12016 0.00502,-0.18123c0.001,-0.06008 0.002,-0.12115 0.003,-0.18221c0,-0.06107 -0.001,-0.12115 -0.001,-0.18124c-0.001,-0.06106 -0.00301,-0.12213 -0.00501,-0.18123c0,-0.00788 0,-0.01773 0.001,-0.02659c0.00401,-0.05221 0.02305,-0.09751 0.05511,-0.12903c0.02606,-0.02955 0.06313,-0.04629 0.10322,-0.04728l0.01202,0c0.05511,0.00394 0.11023,0.03152 0.15332,0.0719c0.04409,0.04236 0.07515,0.09751 0.08016,0.15563c0.00601,0.05909 0.01002,0.11327 0.01203,0.16645c0.003,0.05713 0.004,0.11229 0.003,0.16745c0,0.05515 -0.001,0.11031 -0.00401,0.16744zm2.54233,-0.7464c0.03708,-0.03251 0.08618,-0.05417 0.13929,-0.05516c0.0501,0.00099 0.0982,0.02068 0.13327,0.0522c0.03808,0.03349 0.06113,0.07781 0.06313,0.12706c0.00201,0.07486 0.00401,0.14873 0.00501,0.2226c0.00101,0.07387 0.00301,0.14775 0.00301,0.22063c0,0.07387 0,0.14873 -0.001,0.2226c0,0.0719 -0.00201,0.14578 -0.00401,0.22063c-0.002,0.04827 -0.02605,0.09357 -0.06413,0.12608c-0.03608,0.0325 -0.08618,0.05417 -0.13628,0.05515c-0.05211,-0.00098 -0.10121,-0.02265 -0.13729,-0.05417c-0.03707,-0.03349 -0.06212,-0.07781 -0.06313,-0.12706c-0.002,-0.07485 -0.004,-0.14873 -0.00601,-0.22063c-0.002,-0.07387 -0.003,-0.14873 -0.003,-0.22161c0,-0.07289 0.001,-0.14676 0.002,-0.22063c0.001,-0.07289 0.00301,-0.14676 0.00601,-0.22162c0.001,-0.04826 0.02606,-0.09357 0.06313,-0.12607zm0.72049,0.01477l0.01102,0c0.05511,0.00394 0.11023,0.03054 0.15231,0.06993c0.04309,0.0394 0.07315,0.09161 0.07816,0.14479c0.00601,0.05713 0.01002,0.11032 0.01303,0.15957c0.002,0.05417 0.00401,0.10736 0.00501,0.15857c0.001,0.05221 0.001,0.10539 -0.001,0.15858c-0.001,0.05122 -0.00401,0.10244 -0.00902,0.15759c-0.00401,0.05418 -0.03407,0.10441 -0.07616,0.14381c-0.04309,0.0394 -0.0992,0.06599 -0.15532,0.07092l-0.01202,0c-0.04209,-0.00099 -0.08017,-0.01773 -0.10923,-0.04531c-0.03006,-0.02955 -0.0511,-0.0719 -0.05411,-0.12017c0,-0.00788 0,-0.01576 0,-0.02265c0.001,-0.05614 0.001,-0.11426 0.00201,-0.17237l0,-0.17138c-0.00101,-0.05811 -0.00201,-0.11524 -0.00201,-0.17138c-0.001,-0.0591 -0.002,-0.11623 -0.00401,-0.17237l0,-0.02167c0.00401,-0.04826 0.02305,-0.09062 0.05311,-0.12115c0.02906,-0.02758 0.06714,-0.04432 0.10823,-0.04531zm-1.32172,0.07486c0.04309,-0.04137 0.0992,-0.06895 0.15331,-0.0719l0.01103,0c0.04108,0.00098 0.07816,0.01773 0.10521,0.04629c0.03006,0.0325 0.05111,0.0788 0.05511,0.13001l0,0.0266c-0.002,0.0591 -0.004,0.12016 -0.004,0.18123c-0.00101,0.06107 -0.00201,0.12016 -0.00101,0.18123c0,0.06107 0.00101,0.12214 0.00201,0.18123c0.001,0.06206 0.003,0.12214 0.00501,0.18124c0.001,0.00985 0,0.01871 0,0.02954c-0.00501,0.05122 -0.02505,0.09555 -0.05512,0.12706c-0.02605,0.0266 -0.06212,0.04334 -0.1012,0.04433c-0.00301,0.00098 -0.00702,0 -0.01303,0c-0.05411,-0.00493 -0.11023,-0.03349 -0.15332,-0.07486c-0.04509,-0.04334 -0.07615,-0.10047 -0.08317,-0.15858c-0.00501,-0.05417 -0.00901,-0.11031 -0.01202,-0.16646c-0.00301,-0.05712 -0.00401,-0.11228 -0.00401,-0.16744c-0.001,-0.05516 0,-0.11031 0.00301,-0.16744c0.002,-0.05319 0.00601,-0.10736 0.01102,-0.16744c0.00601,-0.05812 0.03708,-0.11229 0.08117,-0.15464zm-0.2883,-7.12379c0,0.12508 -0.10421,0.22752 -0.23147,0.22752c-0.12827,0 -0.23148,-0.10244 -0.23148,-0.22752c0,-0.12608 0.10321,-0.22851 0.23148,-0.22851c0.12826,0 0.23147,0.10243 0.23147,0.22851zm-0.46235,1.00603c0.39482,0 0.71347,-0.3142 0.71347,-0.70227c0,-0.38808 -0.31865,-0.70326 -0.71347,-0.70326c-0.39381,0 -0.71347,0.31518 -0.71347,0.70326c0,0.38807 0.31966,0.70227 0.71347,0.70227zm2.13439,1.21839c0.65235,0.4452 1.05718,1.15929 1.05718,2.21517c0,0.80668 -0.28359,1.69412 -0.7265,2.47618c-0.11223,-0.07585 -0.27556,-0.07486 -0.50003,-0.10933c-0.07916,-0.01281 -0.1483,-0.06009 -0.24049,-0.09653c0.15432,-0.39792 0.23348,-0.7919 0.23348,-1.17111c0,-1.44395 -0.91388,-2.45254 -2.22357,-2.45254c-1.3087,0 -2.22258,1.00859 -2.22258,2.45254c0,0.37822 0.07816,0.7722 0.23148,1.16914c-0.0952,0.03644 -0.16534,0.08569 -0.24651,0.0985c-0.22446,0.03447 -0.38679,0.03348 -0.50002,0.10933c-0.44191,-0.78206 -0.7265,-1.6695 -0.7265,-2.47618c0,-1.05588 0.40584,-1.76997 1.05718,-2.21517c0.20442,-0.12607 0.40884,-0.25116 0.61326,-0.37724c0.15231,-0.09849 0.16934,-0.19403 -0.07115,-0.17335l-0.54211,0.04432l0,-0.96821c0,-1.30211 1.08222,-2.36586 2.40394,-2.36586c0,0 1.49908,0.07387 1.78868,-0.5762c0.27757,0.52498 0.13227,0.96328 -0.14931,1.21642c0.21344,0.09357 0.40985,0.32405 0.55013,0.60476c-0.55714,0.72985 -0.56115,1.93741 0.21344,2.59536zm62.29771,6.44486l0,-7.16285l-2.71234,0l0,-1.47946l7.0371,0l0,1.47946l-2.71234,0l0,7.16285l-1.61242,0zm-27.73966,0l0,-8.64231l1.61258,0l0,3.69699l3.28852,-3.69699l2.00355,0l0,0.04948l-3.79988,4.13589l4.11754,4.35814l0,0.0988l-1.99165,0l-3.61808,-3.85463l0,3.85463l-1.61258,0zm22.60495,-8.61781l1.60052,0l0,4.94367c0,2.55222 -1.55165,3.85923 -3.70181,3.85923c-2.05258,0 -3.79939,-1.25951 -3.79939,-3.85923l0,-4.94367l1.60003,0l0,4.94367c0,1.55342 0.87968,2.37945 2.21125,2.37945c1.3319,0 2.0894,-0.90099 2.0894,-2.37945l0,-4.94367zm-11.21198,1.29468c-2.01593,0 -2.84609,1.64039 -2.80992,3.09436c0.03551,1.41715 0.79399,2.93408 2.80992,2.93408c2.01592,0 2.7744,-1.52942 2.79802,-2.94657c0.02411,-1.45365 -0.7821,-3.08187 -2.79802,-3.08187zm0,-1.47945c2.94447,0 4.41011,2.28164 4.38617,4.53699c-0.02346,2.23068 -1.38045,4.46301 -4.38617,4.46301c-3.00508,0 -4.39839,-2.18236 -4.39839,-4.45101c0,-2.26833 1.44202,-4.54899 4.39839,-4.54899zm-16.59676,1.47945c-2.01609,0 -2.84706,1.63973 -2.81008,3.09436c0.036,1.41764 0.79399,2.93408 2.81008,2.93408c2.01561,0 2.77343,-1.52877 2.79738,-2.94657c0.02476,-1.45414 -0.78177,-3.08187 -2.79738,-3.08187zm0,-1.47945c2.94432,0 4.41061,2.28099 4.38601,4.53699c-0.02411,2.23134 -1.38044,4.46301 -4.38601,4.46301c-3.00556,0 -4.39839,-2.18236 -4.39839,-4.45101c0,-2.26833 1.4417,-4.54899 4.39839,-4.54899zm-9.45263,1.47945c-2.01576,0 -2.84689,1.63973 -2.80992,3.09436c0.03584,1.41731 0.79416,2.93408 2.80992,2.93408c2.01593,0 2.77376,-1.52877 2.79771,-2.94657c0.02459,-1.45414 -0.78178,-3.08187 -2.79771,-3.08187zm0,-1.47945c2.94448,0 4.41061,2.28099 4.38601,4.53699c-0.02411,2.23134 -1.3806,4.46301 -4.38601,4.46301c-3.0054,0 -4.39839,-2.18236 -4.39839,-4.45101c0,-2.26833 1.44186,-4.54899 4.39839,-4.54899zm-8.21081,1.67688l-2.45561,0l0,2.77348l2.45561,0c1.02596,0 1.46629,-0.69222 1.46629,-1.38658c0,-0.69452 -0.45254,-1.3869 -1.46629,-1.3869zm3.50666,7.01457l0,0.11113l-1.91835,0l-2.49226,-2.88494l-1.55166,0l0,2.88494l-1.61274,0l0,-8.64231l4.06835,0c2.01593,0 3.07903,1.3685 3.07903,2.86652c0,1.18948 -0.5379,2.38554 -2.16254,2.71825l2.59017,2.94641zm-87.71701,-1.69145l1.683,-7.92l2.893,0c0.51334,0 0.924,0.05867 1.232,0.176c0.308,0.11733 0.53717,0.27867 0.6875,0.484c0.15033,0.20533 0.2365,0.44183 0.2585,0.7095c0.022,0.26767 0,0.54817 -0.066,0.8415c-0.09533,0.44 -0.26217,0.803 -0.5005,1.089c-0.23834,0.286 -0.51883,0.5115 -0.8415,0.6765c-0.32267,0.165 -0.671,0.2805 -1.045,0.3465c-0.374,0.066 -0.74433,0.099 -1.111,0.099l-1.694,0l-0.748,3.498l-0.748,0zm3.344,-4.136c0.352,0 0.671,-0.022 0.957,-0.066c0.286,-0.044 0.539,-0.1265 0.759,-0.2475c0.22,-0.121 0.40517,-0.286 0.5555,-0.495c0.15033,-0.209 0.26217,-0.48216 0.3355,-0.8195c0.11,-0.49867 0.02934,-0.87633 -0.242,-1.133c-0.27134,-0.25667 -0.76266,-0.385 -1.474,-0.385l-1.936,0l-0.671,3.146l1.716,0zm5.544,4.29c-0.36667,-0.00733 -0.69483,-0.07333 -0.9845,-0.198c-0.28967,-0.12467 -0.528,-0.31167 -0.715,-0.561c-0.187,-0.24933 -0.30983,-0.561 -0.3685,-0.935c-0.05867,-0.374 -0.03667,-0.81033 0.066,-1.309c0.088,-0.418 0.2255,-0.8085 0.4125,-1.1715c0.187,-0.363 0.41983,-0.68017 0.6985,-0.9515c0.27867,-0.27133 0.5995,-0.48583 0.9625,-0.6435c0.363,-0.15767 0.7645,-0.2365 1.2045,-0.2365c0.44734,0 0.8195,0.07883 1.1165,0.2365c0.297,0.15767 0.52617,0.37033 0.6875,0.638c0.16133,0.26767 0.25667,0.58483 0.286,0.9515c0.02933,0.36667 0,0.759 -0.088,1.177c-0.09533,0.45467 -0.24567,0.86533 -0.451,1.232c-0.20533,0.36667 -0.451,0.682 -0.737,0.946c-0.286,0.264 -0.60683,0.4675 -0.9625,0.6105c-0.35567,0.143 -0.7315,0.2145 -1.1275,0.2145zm2.574,-3.003c0.066,-0.33733 0.09533,-0.65267 0.088,-0.946c-0.00733,-0.29333 -0.06417,-0.54817 -0.1705,-0.7645c-0.10633,-0.21633 -0.26767,-0.38683 -0.484,-0.5115c-0.21633,-0.12467 -0.5005,-0.187 -0.8525,-0.187c-0.34467,0 -0.6545,0.06783 -0.9295,0.2035c-0.275,0.13567 -0.51517,0.31533 -0.7205,0.539c-0.20533,0.22367 -0.374,0.48033 -0.506,0.77c-0.132,0.28967 -0.231,0.5885 -0.297,0.8965c-0.07333,0.352 -0.099,0.6765 -0.077,0.9735c0.022,0.297 0.09167,0.55183 0.209,0.7645c0.11733,0.21267 0.28417,0.37767 0.5005,0.495c0.21633,0.11733 0.48216,0.176 0.7975,0.176c0.34467,0 0.6545,-0.06783 0.9295,-0.2035c0.275,-0.13567 0.51333,-0.31717 0.715,-0.5445c0.20167,-0.22733 0.3685,-0.484 0.5005,-0.77c0.132,-0.286 0.231,-0.583 0.297,-0.891zm6.314,1.969l2.519,-4.818l0.671,0l-3.058,5.698l-0.704,0l-0.231,-4.785l-0.022,0l-2.277,4.785l-0.792,0l-0.528,-5.698l0.66,0l0.44,4.862l2.354,-4.862l0.737,0l0.231,4.818zm7.755,-2.365c0.05867,-0.27867 0.07517,-0.54083 0.0495,-0.7865c-0.02567,-0.24567 -0.0935,-0.45833 -0.2035,-0.638c-0.11,-0.17967 -0.26767,-0.32267 -0.473,-0.429c-0.20533,-0.10633 -0.45467,-0.1595 -0.748,-0.1595c-0.29334,0 -0.56283,0.055 -0.8085,0.165c-0.24567,0.11 -0.4675,0.25667 -0.6655,0.44c-0.198,0.18333 -0.37033,0.396 -0.517,0.638c-0.14667,0.242 -0.264,0.49867 -0.352,0.77l3.718,0zm-3.839,0.55c-0.066,0.308 -0.088,0.5995 -0.066,0.8745c0.022,0.275 0.09167,0.51333 0.209,0.715c0.11733,0.20167 0.28417,0.363 0.5005,0.484c0.21633,0.121 0.48217,0.1815 0.7975,0.1815c0.43267,0 0.82683,-0.11367 1.1825,-0.341c0.35567,-0.22733 0.62883,-0.55 0.8195,-0.968l0.737,0c-0.13933,0.27133 -0.29883,0.5225 -0.4785,0.7535c-0.17967,0.231 -0.38683,0.43267 -0.6215,0.605c-0.23467,0.17233 -0.49866,0.30617 -0.792,0.4015c-0.29333,0.09533 -0.61967,0.143 -0.979,0.143c-0.45467,0 -0.8305,-0.077 -1.1275,-0.231c-0.297,-0.154 -0.52433,-0.36483 -0.682,-0.6325c-0.15767,-0.26767 -0.2475,-0.583 -0.2695,-0.946c-0.022,-0.363 0.011,-0.7535 0.099,-1.1715c0.088,-0.418 0.231,-0.81033 0.429,-1.177c0.198,-0.36667 0.43816,-0.6875 0.7205,-0.9625c0.28233,-0.275 0.60133,-0.49133 0.957,-0.649c0.35567,-0.15767 0.73883,-0.2365 1.1495,-0.2365c0.78467,0 1.34383,0.2695 1.6775,0.8085c0.33367,0.539 0.38683,1.32183 0.1595,2.3485l-4.422,0zm5.83,2.695l-0.66,0l1.21,-5.698l0.66,0l-0.231,1.067l0.022,0c0.27867,-0.45467 0.583,-0.77183 0.913,-0.9515c0.33,-0.17967 0.73333,-0.2695 1.21,-0.2695l-0.154,0.715c-0.36667,-0.00733 -0.68383,0.05133 -0.9515,0.176c-0.26767,0.12467 -0.495,0.29333 -0.682,0.506c-0.187,0.21267 -0.341,0.46383 -0.462,0.7535c-0.121,0.28967 -0.2145,0.59217 -0.2805,0.9075l-0.594,2.794zm7.59,-3.245c0.05867,-0.27867 0.07517,-0.54083 0.0495,-0.7865c-0.02567,-0.24567 -0.0935,-0.45833 -0.2035,-0.638c-0.11,-0.17967 -0.26767,-0.32267 -0.473,-0.429c-0.20533,-0.10633 -0.45466,-0.1595 -0.748,-0.1595c-0.29333,0 -0.56283,0.055 -0.8085,0.165c-0.24567,0.11 -0.4675,0.25667 -0.6655,0.44c-0.198,0.18333 -0.37033,0.396 -0.517,0.638c-0.14667,0.242 -0.264,0.49867 -0.352,0.77l3.718,0zm-3.839,0.55c-0.066,0.308 -0.088,0.5995 -0.066,0.8745c0.022,0.275 0.09167,0.51333 0.209,0.715c0.11733,0.20167 0.28417,0.363 0.5005,0.484c0.21633,0.121 0.48216,0.1815 0.7975,0.1815c0.43267,0 0.82683,-0.11367 1.1825,-0.341c0.35567,-0.22733 0.62883,-0.55 0.8195,-0.968l0.737,0c-0.13933,0.27133 -0.29883,0.5225 -0.4785,0.7535c-0.17967,0.231 -0.38683,0.43267 -0.6215,0.605c-0.23467,0.17233 -0.49867,0.30617 -0.792,0.4015c-0.29334,0.09533 -0.61966,0.143 -0.979,0.143c-0.45467,0 -0.8305,-0.077 -1.1275,-0.231c-0.297,-0.154 -0.52433,-0.36483 -0.682,-0.6325c-0.15767,-0.26767 -0.2475,-0.583 -0.2695,-0.946c-0.022,-0.363 0.011,-0.7535 0.099,-1.1715c0.088,-0.418 0.231,-0.81033 0.429,-1.177c0.198,-0.36667 0.43817,-0.6875 0.7205,-0.9625c0.28233,-0.275 0.60133,-0.49133 0.957,-0.649c0.35567,-0.15767 0.73883,-0.2365 1.1495,-0.2365c0.78467,0 1.34383,0.2695 1.6775,0.8085c0.33367,0.539 0.38683,1.32183 0.1595,2.3485l-4.422,0zm10.142,-0.176c0.066,-0.32267 0.08617,-0.62883 0.0605,-0.9185c-0.02567,-0.28967 -0.09717,-0.54267 -0.2145,-0.759c-0.11733,-0.21633 -0.2805,-0.38867 -0.4895,-0.517c-0.209,-0.12833 -0.46383,-0.1925 -0.7645,-0.1925c-0.34467,0 -0.65633,0.06783 -0.935,0.2035c-0.27867,0.13567 -0.52433,0.32083 -0.737,0.5555c-0.21267,0.23467 -0.38867,0.50783 -0.528,0.8195c-0.13933,0.31167 -0.23833,0.64716 -0.297,1.0065c-0.07333,0.35934 -0.08983,0.6765 -0.0495,0.9515c0.04033,0.275 0.1265,0.50783 0.2585,0.6985c0.132,0.19067 0.30617,0.3355 0.5225,0.4345c0.21633,0.099 0.46383,0.1485 0.7425,0.1485c0.308,0 0.59583,-0.06233 0.8635,-0.187c0.26767,-0.12467 0.506,-0.29517 0.715,-0.5115c0.209,-0.21633 0.385,-0.473 0.528,-0.77c0.143,-0.297 0.25117,-0.61783 0.3245,-0.9625zm1.078,-5.049l0.66,0l-1.683,7.92l-0.66,0l0.209,-1.001l-0.022,0c-0.132,0.19067 -0.28967,0.3575 -0.473,0.5005c-0.18333,0.143 -0.374,0.26217 -0.572,0.3575c-0.198,0.09533 -0.39783,0.16867 -0.5995,0.22c-0.20167,0.05133 -0.39417,0.077 -0.5775,0.077c-0.462,0 -0.83966,-0.077 -1.133,-0.231c-0.29334,-0.154 -0.51333,-0.36483 -0.66,-0.6325c-0.14667,-0.26767 -0.22917,-0.58483 -0.2475,-0.9515c-0.01833,-0.36667 0.0165,-0.759 0.1045,-1.177c0.088,-0.396 0.22,-0.77733 0.396,-1.144c0.176,-0.36667 0.39783,-0.6875 0.6655,-0.9625c0.26767,-0.275 0.57933,-0.495 0.935,-0.66c0.35567,-0.165 0.74983,-0.2475 1.1825,-0.2475c0.40334,0 0.77183,0.08983 1.1055,0.2695c0.33367,0.17967 0.5665,0.4455 0.6985,0.7975l0.671,-3.135zm5.038,5.049c-0.07333,0.34467 -0.099,0.6655 -0.077,0.9625c0.022,0.297 0.09167,0.55367 0.209,0.77c0.11733,0.21633 0.28417,0.38683 0.5005,0.5115c0.21633,0.12467 0.4785,0.187 0.7865,0.187c0.27867,0 0.54633,-0.0495 0.803,-0.1485c0.25667,-0.099 0.49133,-0.24383 0.704,-0.4345c0.21267,-0.19067 0.39783,-0.4235 0.5555,-0.6985c0.15767,-0.275 0.27683,-0.59216 0.3575,-0.9515c0.088,-0.35934 0.12833,-0.69483 0.121,-1.0065c-0.00733,-0.31167 -0.066,-0.58483 -0.176,-0.8195c-0.11,-0.23467 -0.27683,-0.41983 -0.5005,-0.5555c-0.22367,-0.13567 -0.50416,-0.2035 -0.8415,-0.2035c-0.30067,0 -0.583,0.06417 -0.847,0.1925c-0.264,0.12833 -0.50417,0.30067 -0.7205,0.517c-0.21633,0.21633 -0.39967,0.46933 -0.55,0.759c-0.15033,0.28967 -0.2585,0.59583 -0.3245,0.9185zm-0.605,2.871l-0.66,0l1.683,-7.92l0.66,0l-0.671,3.135c0.286,-0.352 0.63433,-0.61783 1.045,-0.7975c0.41067,-0.17967 0.81767,-0.2695 1.221,-0.2695c0.43267,0 0.792,0.0825 1.078,0.2475c0.286,0.165 0.50417,0.385 0.6545,0.66c0.15033,0.275 0.23833,0.59583 0.264,0.9625c0.02567,0.36667 -0.0055,0.748 -0.0935,1.144c-0.088,0.418 -0.22,0.81033 -0.396,1.177c-0.176,0.36667 -0.396,0.68383 -0.66,0.9515c-0.264,0.26767 -0.57383,0.4785 -0.9295,0.6325c-0.35567,0.154 -0.7645,0.231 -1.2265,0.231c-0.18333,0 -0.36483,-0.02567 -0.5445,-0.077c-0.17967,-0.05133 -0.34833,-0.12467 -0.506,-0.22c-0.15767,-0.09533 -0.297,-0.2145 -0.418,-0.3575c-0.121,-0.143 -0.21083,-0.30983 -0.2695,-0.5005l-0.022,0l-0.209,1.001zm5.61,1.551c0.08067,0.01467 0.16683,0.02933 0.2585,0.044c0.09167,0.01467 0.18517,0.022 0.2805,0.022c0.18333,0 0.3465,-0.05867 0.4895,-0.176c0.143,-0.11733 0.2695,-0.2585 0.3795,-0.4235c0.11,-0.165 0.21083,-0.33733 0.3025,-0.517c0.09167,-0.17967 0.1815,-0.33183 0.2695,-0.4565l-0.99,-5.742l0.737,0l0.792,4.895l2.86,-4.895l0.715,0l-3.322,5.621c-0.21267,0.35934 -0.407,0.682 -0.583,0.968c-0.176,0.286 -0.352,0.52983 -0.528,0.7315c-0.176,0.20167 -0.35933,0.35567 -0.55,0.462c-0.19067,0.10633 -0.39967,0.1595 -0.627,0.1595c-0.11733,0 -0.22917,-0.00733 -0.3355,-0.022c-0.10633,-0.01467 -0.19983,-0.033 -0.2805,-0.055l0.132,-0.616z"/>
    </g>
   </g>
  </g>
  <!-- Generator: sketchtool 53.2 (72643) - https://sketchapp.com -->
  <desc transform="matrix(0.1500689937313524,0,0,0.1500689937313524,0,0) ">Created with sketchtool.</desc>
  <g stroke="null" id="svg_12">
   <g transform="matrix(1.1448080595492438,0,0,1.1448080595492438,-137.8686045001329,-121.54148935396822) " fill-rule="evenodd" fill="none" id="svg_7">
    <g stroke="null" fill-rule="nonzero" fill="#FFFFFF" id="svg_8">
     <g stroke="null" id="svg_9">
      <path stroke="null" id="svg_10" d="m130.64701,128.18447l-5.14286,-11.44151c-2.90322,2.40153 -4.74654,6.00839 -4.74654,10.04443c0,7.22285 5.91705,13.08514 13.20737,13.08514c0.63595,0 1.26268,-0.04566 1.87097,-0.12784l-5.12442,-11.40498c-0.01844,-0.05479 -0.03687,-0.10045 -0.06452,-0.15524zm23.85254,12.38204l-0.35023,0.86747l-0.35024,-0.86747l-0.24884,0l0,1.32403l0.23963,0l0,-0.84007l0.29493,0.71224l0.13825,0l0.29493,-0.71224l0,0.84007l0.23963,0l0,-1.32403l-0.25806,0zm-20.52535,-34.01407c-1.68664,0 -3.31797,0.20089 -4.88479,0.5844l3.01382,6.70237c0.61751,-0.08218 1.24424,-0.12784 1.88019,-0.12784c7.29032,0 13.20737,5.86229 13.20737,13.08515c0,4.03603 -1.84332,7.65202 -4.74654,10.05355l3.01382,6.70237c5.41014,-3.64339 8.95853,-9.77961 8.95853,-16.74679c-0.01844,-11.18584 -9.16129,-20.25321 -20.4424,-20.25321zm18.39631,34.21496l0.35023,0l0,1.12314l0.23963,0l0,-1.12314l0.35024,0l0,-0.20089l-0.9401,0l0,0.20089z"/>
     </g>
    </g>
   </g>
  </g>
 </g>
</svg>