<?xml version="1.0" encoding="utf-8"?>
<!-- Generator: Adobe Illustrator 22.1.0, SVG Export Plug-In . SVG Version: 6.00 Build 0)  -->
<svg version="1.1" id="Layer_1" xmlns="http://www.w3.org/2000/svg" xmlns:xlink="http://www.w3.org/1999/xlink" x="0px" y="0px"
	 viewBox="0 0 91 100" style="enable-background:new 0 0 91 100;" xml:space="preserve">
<style type="text/css">
	.st0{fill-rule:evenodd;clip-rule:evenodd;fill:#54476E;}
	.st1{fill-rule:evenodd;clip-rule:evenodd;fill:#AF6BD6;}
	.st2{fill-rule:evenodd;clip-rule:evenodd;fill:#8C55B7;}
	.st3{fill-rule:evenodd;clip-rule:evenodd;fill:#FFFFFF;}
	.st4{fill:#FFB03F;}
	.st5{fill:#ED9140;}
	.st6{fill:#FFCE92;}
</style>
<g>
	<path class="st0" d="M55.5,6.7C54.8,7.9,54,9,53,9.9c-2.1,1.7-4.8,1.9-7.4,1.7l-0.1,0h-0.1c-8.6,0-15.6,7-15.6,15.6v6.9l-0.3,0.3
		c-3.9,3.4-5.4,8.2-5.4,13.2c0,5.6,2.1,11.6,5.2,16.6h-9.8c-3,0-5.2-1.7-6-4.3H8v0.7c0,6.7,5.4,9.7,11.3,9.7h12.5l-2.6,9.5
		c-0.7,2.4-0.7,5.1,0.5,7.4c0.9,1.7,2.4,3,4.3,3.4c1.3,0.3,2.7,0.2,4-0.3l0.8-0.3l0.4,0.7c0.2,0.3,0.4,0.6,0.6,0.9
		c1.4,1.8,3.5,2.9,5.8,2.9c2.3,0,4.4-1.1,5.8-2.9c0.2-0.3,0.4-0.6,0.6-0.9l0.4-0.7l0.8,0.3c1.2,0.5,2.6,0.6,3.9,0.3
		c1.9-0.5,3.4-1.7,4.3-3.4c1.2-2.3,1.1-5,0.4-7.4l-2.6-9.5h12.5c5.9,0,11.3-3,11.3-9.7V60h-5.6c-0.8,2.6-3,4.3-6,4.3h-9.8
		c3.1-5,5.2-11,5.2-16.6c0-5.1-1.5-9.8-5.4-13.2l-0.1-0.1l7.6-4.9c-1.2-3.4-6.4-7.9-9.2-9.4c-0.4-0.9-0.9-1.7-1.5-2.4l-0.4-0.4
		l0.2-0.5C59.1,13.9,57.2,9.5,55.5,6.7"/>
	<path class="st1" d="M56.5,70.4l2.8,10.2c2.2,8.1-5.6,10.8-8.5,3.9c0.5,10.3-11.1,10.3-10.6,0c-2.8,6.9-10.8,4.2-8.6-3.9l2.8-10.2
		h1.5c3.3,0,5.9,1.8,6.7,5.1h5.7c0.8-3.3,3.3-5.1,6.7-5.1H56.5z M46.8,20.4c2.6,0,4.7,2.1,4.7,4.7c0,2.6-2.1,4.7-4.7,4.7
		c-2.6,0-4.7-2.1-4.7-4.7C42.1,22.5,44.2,20.4,46.8,20.4z M58.6,35.4c3.6,2.5,5.8,6.4,5.8,12.3c0,4.5-1.5,9.4-4,13.7
		c-0.6-0.4-1.5-0.4-2.7-0.6c-0.7-0.1-1.3-0.8-2.5-0.8c-1.3,0-1.9,0.7-2.6,0.8c-1.4,0.2-2.3,0.1-2.9,0.7c-0.4,0.4-0.7,1.2-0.8,1.8
		c0,0.3-0.1,0.7-0.1,1.1c0,0.4,0,0.7,0,1.1c-1.1,0.6-2,1.6-2.7,3l-0.6,1l-0.6-1c-0.8-1.5-1.7-2.4-2.7-3.1c0-0.4,0-0.7,0-1.1
		c0-0.4,0-0.8-0.1-1.1c-0.1-0.6-0.3-1.4-0.8-1.8c-0.6-0.6-1.5-0.5-2.9-0.7c-0.7-0.1-1.3-0.8-2.6-0.8c-1.3,0-1.8,0.7-2.5,0.8
		c-1.2,0.2-2.1,0.2-2.7,0.6c-2.4-4.3-4-9.2-4-13.7c0-5.8,2.2-9.8,5.8-12.3c1.1-0.7,2.2-1.4,3.3-2.1c0.8-0.5,0.9-1.1-0.4-1l-3,0.3
		v-5.4c0-7.2,5.9-13.1,13.1-13.1c0,0,8.2,0.4,9.8-3.2c1.5,2.9,0.7,5.3-0.8,6.7c1.2,0.5,2.2,1.8,3,3.3C54.4,25.1,54.3,31.8,58.6,35.4
		z"/>
	<path class="st2" d="M30.6,61.4c-2.4-4.3-4-9.2-4-13.7c0-5.8,2.2-9.8,5.8-12.3c1.1-0.7,2.2-1.4,3.3-2.1c0.8-0.5,0.9-1.1-0.4-1
		l-3,0.3v-5.4c0-4.6,2.4-8.6,6-11c-4.8,5.6-2,14.9,2.8,17.3c-11.7,7.2-8.1,17.4-2.8,27.2C37.6,60.6,37,60,35.8,60
		c-1.3,0-1.8,0.7-2.5,0.8C32.1,61,31.2,61,30.6,61.4 M55.2,11c1.5,2.9,0.7,5.3-0.8,6.7c-0.8-0.3-1.2-0.5-1.9-0.6
		c-0.2,0-0.3-0.3,0-0.5C54.2,15.4,55.3,13.8,55.2,11z M45.9,92.2c-2.9,0.2-5.9-2.3-5.7-7.7c-2.8,6.9-10.8,4.2-8.6-3.9l2.8-10.2h1.5
		c3.3,0,5.9,1.8,6.7,5.1h5.6l0,0.1C45.5,81.1,45.9,86.3,45.9,92.2z"/>
	<path class="st3" d="M45.5,39.2c6.6,0,12,5,12,13.5c0,2.5-0.6,5.1-1.6,7.4C55.6,60,55.4,60,55.1,60c-1.3,0-1.9,0.7-2.6,0.8
		c-1.4,0.2-2.3,0.1-2.9,0.7c-0.4,0.4-0.7,1.2-0.8,1.8c0,0.3-0.1,0.7-0.1,1.1c0,0.4,0,0.7,0,1.1c-1.1,0.6-2,1.6-2.7,3l-0.6,1l-0.6-1
		c-0.8-1.5-1.7-2.4-2.7-3.1c0-0.4,0-0.7,0-1.1c0-0.4,0-0.8-0.1-1.1c-0.1-0.6-0.3-1.4-0.8-1.8c-0.6-0.6-1.5-0.5-2.9-0.7
		c-0.7-0.1-1.3-0.8-2.6-0.8c-0.3,0-0.5,0-0.7,0.1c-1-2.3-1.6-4.9-1.6-7.4C33.5,44.2,38.8,39.2,45.5,39.2"/>
	<path class="st4" d="M62.9,25c-1.3-1.2-2.8-2.2-4.2-3c-1.2,2.1-1.6,4.1-1.5,5.8c0.1,2.1,0.8,3.9,1.7,5l7.2-4.2
		C65.2,27.4,64.1,26.1,62.9,25"/>
	<path class="st5" d="M57.4,29.8c0.3,1.3,0.9,2.3,1.5,3.1l7.2-4.2C63.3,29.5,60.3,29.9,57.4,29.8"/>
	<path class="st6" d="M64.5,27.7c-1.3-1.7-2.9-2.9-5-4.2c-0.4,0.5-0.6,1.1-0.7,1.8C60.7,26,62.6,26.8,64.5,27.7"/>
	<path class="st3" d="M48.3,22c0.8,0,1.5,0.7,1.5,1.5c0,0.8-0.7,1.5-1.5,1.5c-0.8,0-1.5-0.7-1.5-1.5C46.7,22.6,47.4,22,48.3,22"/>
	<path class="st5" d="M36.6,62.4c-0.2-0.2-0.5-0.3-0.8-0.3c-0.3,0-0.5,0.1-0.7,0.3c-0.2,0.2-0.3,0.4-0.3,0.7c0,0.4,0,0.8,0,1.2
		c0,0.4,0,0.8,0,1.2c0,0.4,0,0.8,0,1.2c0,0.4,0,0.8,0,1.2c0,0.3,0.1,0.5,0.3,0.7c0.2,0.2,0.5,0.3,0.7,0.3c0.3,0,0.5-0.1,0.7-0.3
		c0.2-0.2,0.3-0.4,0.3-0.7c0-0.4,0-0.8,0-1.2c0-0.4,0-0.8,0-1.2c0-0.4,0-0.8,0-1.2c0-0.4,0-0.8,0-1.2C36.9,62.8,36.8,62.5,36.6,62.4
		 M32.7,62.4C32.6,62.4,32.6,62.4,32.7,62.4L32.7,62.4c-0.4,0-0.7,0.2-0.9,0.4c-0.2,0.2-0.4,0.5-0.4,0.8c0,0.3-0.1,0.6-0.1,0.9
		c0,0.3,0,0.6,0,0.9c0,0.3,0,0.6,0,0.9c0,0.3,0,0.6,0,0.9c0,0.3,0.2,0.6,0.4,0.8c0.2,0.2,0.5,0.4,0.8,0.4l0,0c0,0,0.1,0,0.1,0
		c0.2,0,0.4-0.1,0.6-0.3c0.2-0.2,0.3-0.4,0.3-0.7c0,0,0-0.1,0-0.1c0-0.3,0-0.6,0-1c0-0.3,0-0.6,0-1c0-0.3,0-0.6,0-0.9
		c0-0.3,0-0.6,0-1c0,0,0-0.1,0-0.1c0-0.3-0.1-0.5-0.3-0.7C33.1,62.5,32.9,62.4,32.7,62.4z M39.9,62.9c-0.2-0.2-0.5-0.4-0.8-0.4v0
		c0,0,0,0-0.1,0c-0.2,0-0.4,0.1-0.6,0.3c-0.2,0.2-0.3,0.4-0.3,0.7c0,0.1,0,0.1,0,0.1c0,0.3,0,0.7,0,1c0,0.3,0,0.7,0,1v0
		c0,0.3,0,0.7,0,1c0,0.3,0,0.7,0,1c0,0,0,0.1,0,0.2v0c0,0.3,0.1,0.5,0.3,0.7c0.1,0.2,0.3,0.2,0.5,0.3c0,0,0,0,0.1,0v0
		c0.3,0,0.6-0.2,0.8-0.4c0.2-0.2,0.4-0.6,0.5-0.9c0-0.3,0.1-0.6,0.1-0.9c0-0.3,0-0.6,0-0.9c0-0.3,0-0.6,0-0.9c0-0.3,0-0.6-0.1-0.9
		C40.3,63.4,40.1,63.1,39.9,62.9z"/>
	<path class="st4" d="M37,65.8c-0.3,0.5-0.7,0.8-1.1,0.8c-0.4,0-0.8-0.3-1.1-0.9l0-0.2c0-0.4,0-0.8,0-1.2c0-0.4,0-0.8,0-1.2
		c0-0.3,0.1-0.5,0.3-0.7c0.2-0.2,0.5-0.3,0.7-0.3c0.3,0,0.6,0.1,0.8,0.3c0.2,0.2,0.3,0.4,0.3,0.7c0,0.4,0,0.8,0,1.2
		c0,0.4,0,0.8,0,1.2L37,65.8z M33.5,65.3c-0.3,0.5-0.7,0.7-1.1,0.7c-0.5,0-0.9-0.4-1.2-0.9c0-0.2,0-0.4,0-0.6c0-0.3,0-0.6,0.1-0.9
		c0-0.3,0.2-0.6,0.4-0.8c0.2-0.2,0.5-0.4,0.8-0.4v0c0,0,0,0,0.1,0c0.2,0,0.4,0.1,0.6,0.3c0.2,0.2,0.3,0.4,0.3,0.7c0,0,0,0.1,0,0.1
		c0,0.3,0,0.6,0,1C33.5,64.7,33.5,65,33.5,65.3z M39.9,62.9c-0.2-0.2-0.5-0.4-0.8-0.4v0c0,0,0,0-0.1,0c-0.2,0-0.4,0.1-0.6,0.3
		c-0.2,0.2-0.3,0.4-0.3,0.7c0,0.1,0,0.1,0,0.1c0,0.3,0,0.7,0,1c0,0.2,0,0.4,0,0.6c0.3,0.5,0.7,0.9,1.1,0.9c0.4,0,0.8-0.3,1.1-0.8
		c0-0.2,0-0.4,0-0.6c0-0.3,0-0.6-0.1-0.9C40.3,63.4,40.1,63.1,39.9,62.9z"/>
	<path class="st5" d="M54.3,62.4c0.2-0.2,0.5-0.3,0.8-0.3c0.3,0,0.5,0.1,0.7,0.3c0.2,0.2,0.3,0.4,0.3,0.7c0,0.4,0,0.8,0,1.2
		c0,0.4,0,0.8,0,1.2c0,0.4,0,0.8,0,1.2c0,0.4,0,0.8,0,1.2c0,0.3-0.1,0.5-0.3,0.7c-0.2,0.2-0.5,0.3-0.7,0.3c-0.3,0-0.5-0.1-0.7-0.3
		C54.1,68.5,54,68.2,54,68c0-0.4,0-0.8,0-1.2c0-0.4,0-0.8,0-1.2c0-0.4,0-0.8,0-1.2c0-0.4,0-0.8,0-1.2C54,62.8,54.1,62.5,54.3,62.4
		 M58.3,62.4C58.3,62.4,58.3,62.4,58.3,62.4L58.3,62.4c0.4,0,0.7,0.2,0.9,0.4c0.2,0.2,0.4,0.5,0.4,0.8c0,0.3,0.1,0.6,0.1,0.9
		c0,0.3,0,0.6,0,0.9c0,0.3,0,0.6,0,0.9c0,0.3,0,0.6,0,0.9c0,0.3-0.2,0.6-0.4,0.8c-0.2,0.2-0.5,0.4-0.8,0.4l0,0c0,0-0.1,0-0.1,0
		c-0.2,0-0.4-0.1-0.6-0.3c-0.2-0.2-0.3-0.4-0.3-0.7c0,0,0-0.1,0-0.1c0-0.3,0-0.6,0-1c0-0.3,0-0.6,0-1c0-0.3,0-0.6,0-0.9
		c0-0.3,0-0.6,0-1c0,0,0-0.1,0-0.1c0-0.3,0.1-0.5,0.3-0.7C57.8,62.5,58,62.4,58.3,62.4z M51,62.9c0.2-0.2,0.5-0.4,0.8-0.4v0
		c0,0,0,0,0.1,0c0.2,0,0.4,0.1,0.6,0.3c0.2,0.2,0.3,0.4,0.3,0.7c0,0.1,0,0.1,0,0.1c0,0.3,0,0.7,0,1c0,0.3,0,0.7,0,1v0
		c0,0.3,0,0.7,0,1c0,0.3,0,0.7,0,1c0,0,0,0.1,0,0.2v0c0,0.3-0.1,0.5-0.3,0.7c-0.1,0.2-0.3,0.2-0.5,0.3c0,0,0,0-0.1,0v0
		c-0.3,0-0.6-0.2-0.8-0.4c-0.2-0.2-0.4-0.6-0.5-0.9c0-0.3-0.1-0.6-0.1-0.9c0-0.3,0-0.6,0-0.9c0-0.3,0-0.6,0-0.9c0-0.3,0-0.6,0.1-0.9
		C50.6,63.4,50.8,63.1,51,62.9z"/>
	<path class="st4" d="M54,65.8c0.3,0.5,0.7,0.8,1.1,0.8c0.4,0,0.8-0.3,1.1-0.9l0-0.2c0-0.4,0-0.8,0-1.2c0-0.4,0-0.8,0-1.2
		c0-0.3-0.1-0.5-0.3-0.7c-0.2-0.2-0.5-0.3-0.7-0.3c-0.3,0-0.6,0.1-0.8,0.3c-0.2,0.2-0.3,0.4-0.3,0.7c0,0.4,0,0.8,0,1.2
		c0,0.4,0,0.8,0,1.2L54,65.8z M57.4,65.3c0.3,0.5,0.7,0.7,1.1,0.7c0.5,0,0.9-0.4,1.2-0.9c0-0.2,0-0.4,0-0.6c0-0.3,0-0.6-0.1-0.9
		c0-0.3-0.2-0.6-0.4-0.8c-0.2-0.2-0.5-0.4-0.8-0.4v0c0,0,0,0-0.1,0c-0.2,0-0.4,0.1-0.6,0.3c-0.2,0.2-0.3,0.4-0.3,0.7
		c0,0,0,0.1,0,0.1c0,0.3,0,0.6,0,1C57.4,64.7,57.4,65,57.4,65.3z M51,62.9c0.2-0.2,0.5-0.4,0.8-0.4v0c0,0,0,0,0.1,0
		c0.2,0,0.4,0.1,0.6,0.3c0.2,0.2,0.3,0.4,0.3,0.7c0,0.1,0,0.1,0,0.1c0,0.3,0,0.7,0,1c0,0.2,0,0.4,0,0.6c-0.3,0.5-0.7,0.9-1.1,0.9
		c-0.4,0-0.8-0.3-1.1-0.8c0-0.2,0-0.4,0-0.6c0-0.3,0-0.6,0.1-0.9C50.6,63.4,50.8,63.1,51,62.9z"/>
	<circle class="st1" cx="47.3" cy="24.8" r="5.4"/>
	<circle class="st0" cx="46.9" cy="24.9" r="3.9"/>
	<circle class="st3" cx="48.2" cy="23.4" r="1.3"/>
</g>
</svg>
