<?xml version="1.0" encoding="utf-8"?>
<!-- Generator: Adobe Illustrator 22.0.1, SVG Export Plug-In . SVG Version: 6.00 Build 0)  -->
<svg version="1.1" id="Layer_1" xmlns="http://www.w3.org/2000/svg" xmlns:xlink="http://www.w3.org/1999/xlink" x="0px" y="0px"
	 viewBox="0 0 188 35" style="enable-background:new 0 0 188 35;" xml:space="preserve">
<style type="text/css">
	.st0{filter:url(#Adobe_OpacityMaskFilter);}
	.st1{fill:#FFFFFF;}
	.st2{mask:url(#mask-2_1_);fill:#FFFFFF;}
</style>
<title>Page 1</title>
<desc>Created with Sketch.</desc>
<g id="Symbols">
	<g id="Page-1" transform="translate(19.000000, 16.000000)">
		<g id="Group-3" transform="translate(35.669643, 4.238013)">
			<g id="Clip-2">
			</g>
			<defs>
				<filter id="Adobe_OpacityMaskFilter" filterUnits="userSpaceOnUse" x="-19.4" y="-17.8" width="152" height="23.1">
					<feColorMatrix  type="matrix" values="1 0 0 0 0  0 1 0 0 0  0 0 1 0 0  0 0 0 1 0"/>
				</filter>
			</defs>
			<mask maskUnits="userSpaceOnUse" x="-19.4" y="-17.8" width="152" height="23.1" id="mask-2_1_">
				<g class="st0">
					<polygon id="path-1_1_" class="st1" points="132.6,5.3 132.6,-17.8 -19.4,-17.8 -19.4,5.3 					"/>
				</g>
			</mask>
			<path id="Fill-1" class="st2" d="M121.5,4.8h4.2v-18.4h7v-3.8h-18.1v3.8h7V4.8z M50,4.8h4.2v-9.9l9.3,9.9h5.1V4.5L58-6.7
				l9.8-10.6v-0.1h-5.2l-8.5,9.5v-9.5H50V4.8z M108.2-17.4v12.7c0,3.8-2,6.1-5.4,6.1c-3.4,0-5.7-2.1-5.7-6.1v-12.7H93v12.7
				c0,6.7,4.5,9.9,9.8,9.9c5.5,0,9.5-3.4,9.5-9.9v-12.7H108.2z M79.4-14c5.2,0,7.3,4.2,7.2,7.9c-0.1,3.6-2,7.6-7.2,7.6
				c-5.2,0-7.1-3.9-7.2-7.5C72-9.8,74.2-14,79.4-14L79.4-14z M79.4-17.8C71.7-17.8,68-12,68-6.2c0,5.8,3.6,11.4,11.3,11.4
				c7.7,0,11.2-5.7,11.3-11.5C90.7-12,86.9-17.8,79.4-17.8L79.4-17.8z M36.6-14c5.2,0,7.3,4.2,7.2,7.9c-0.1,3.6-2,7.6-7.2,7.6
				c-5.2,0-7.1-3.9-7.2-7.5C29.3-9.8,31.4-14,36.6-14L36.6-14z M36.6-17.8C29-17.8,25.3-12,25.3-6.2c0,5.8,3.6,11.4,11.3,11.4
				S47.8-0.5,47.9-6.2C48-12,44.2-17.8,36.6-17.8L36.6-17.8z M12.3-14c5.2,0,7.3,4.2,7.2,7.9c-0.1,3.6-2,7.6-7.2,7.6
				C7.1,1.4,5.1-2.4,5-6.1C4.9-9.8,7.1-14,12.3-14L12.3-14z M12.3-17.8C4.6-17.8,0.9-12,0.9-6.2c0,5.8,3.6,11.4,11.3,11.4
				S23.5-0.5,23.5-6.2C23.6-12,19.8-17.8,12.3-17.8L12.3-17.8z M-8.9-13.5c2.6,0,3.8,1.8,3.8,3.6c0,1.8-1.1,3.6-3.8,3.6h-6.3v-7.1
				H-8.9z M0.1,4.5l-6.7-7.6C-2.4-3.9-1-7-1-10.1c0-3.8-2.7-7.4-7.9-7.4h-10.5V4.8h4.2v-7.4h4l6.4,7.4h4.9V4.5z"/>
		</g>
		<path id="Fill-7" class="st1" d="M-2.2,7.7c-0.1,0-0.3,0.2-0.5,0.5c-0.3,0.3-0.6,0.9-0.9,1.7c-0.4-0.8-0.8-1.4-1-1.7
			C-4.8,7.9-5,7.7-5.2,7.7c-0.1,0.5-0.2,0.8-0.3,0.9C-5.6,8.7-5.7,8.8-6,8.9c0.3,0.2,0.6,0.4,0.9,0.7c0.2,0.3,0.5,0.6,0.6,1.2
			c1.1,0,1.6,0,1.6,0s0-0.3,0.4-0.9c0.2-0.4,0.6-0.7,1.1-1c-0.2-0.1-0.4-0.3-0.6-0.5C-2.1,8.1-2.2,7.9-2.2,7.7z"/>
		<path id="Fill-9" class="st1" d="M-10.2,7.1c0,0-3.9,0.1-4.8,0c-0.9-0.1-1.4-0.3-1.6-0.5c-0.3-0.2-0.7-1-0.9-1.5h-1
			c0,0,0,0.5,0.3,1.3s1,1.7,2.8,1.9c1.8,0.2,5.6,0,5.6,0s-0.3-0.2-0.4-0.5C-10.3,7.5-10.2,7.1-10.2,7.1z"/>
		<path id="Fill-9-Copy" class="st1" d="M2.8,7.1c0,0,3.9,0.1,4.8,0C8.6,7.1,9,6.8,9.3,6.6c0.3-0.2,0.7-1,0.9-1.5h1
			c0,0,0,0.5-0.3,1.3S9.8,8.1,8,8.4c-1.8,0.2-5.6,0-5.6,0s0.3-0.2,0.4-0.5C2.9,7.5,2.8,7.1,2.8,7.1z"/>
		<path id="Fill-11" class="st1" d="M1,9.3H0.3c-1.4,0-2.3,0.8-2.7,2.2H-5C-5.3,10-6.3,9.3-7.7,9.3h-0.6l-1.1,4.2
			c-0.9,3.4,2.4,4.6,3.6,1.7c-0.2,4.4,4.7,4.4,4.4,0c1.2,2.9,4.5,1.8,3.6-1.7L1,9.3z"/>
		<path id="Fill-15" class="st1" d="M-2.8-8.4c-0.9,0-1.6-0.7-1.6-1.6c0-0.9,0.7-1.6,1.6-1.6c0.9,0,1.6,0.7,1.6,1.6
			C-1.2-9.1-1.9-8.4-2.8-8.4 M1.4-11.5c-0.3-0.7-0.8-1.2-1.3-1.4c0.6-0.6,1-1.6,0.3-2.8c-0.7,1.5-4.1,1.3-4.1,1.3
			c-3,0-5.5,2.5-5.5,5.5v2.3l1.2-0.1c0.5,0,0.5,0.2,0.2,0.4C-8.2-6-8.7-5.7-9.1-5.4c-1.5,1-2.4,2.7-2.4,5.2c0,1.9,0.7,4,1.7,5.8
			c0.3-0.2,0.6-0.2,1.1-0.3C-8.5,5.2-8.2,5-7.7,5c0.5,0,0.8,0.3,1.1,0.3c0.6,0.1,1,0,1.2,0.3c0.2,0.2,0.3,0.5,0.3,0.7
			c0,0.1,0,0.3,0,0.5c0,0.1,0,0,0,0.2c0.4,0.3,0.8,0.7,1.2,1.3l0.2,0.4l0.2-0.4c0.3-0.6,0.7-1,1.2-1.3c0-0.2,0,0,0-0.2
			c0-0.2,0-0.3,0-0.5c0-0.2,0.1-0.6,0.3-0.7c0.3-0.3,0.6-0.2,1.2-0.3C-0.4,5.3-0.1,5,0.4,5c0.5,0,0.8,0.3,1.1,0.3
			C2,5.4,2.3,5.4,2.6,5.5c1-1.8,1.7-3.9,1.7-5.8c0-2.5-0.9-4.1-2.4-5.2C0.1-7,0.1-9.8,1.4-11.5z"/>
		<path id="Fill-25" class="st1" d="M3.7-9.7c-0.6-0.5-1.2-0.9-1.8-1.3c-0.5,0.9-0.7,1.7-0.6,2.5c0,0.9,0.3,1.6,0.7,2.1l3-1.8
			C4.6-8.7,4.2-9.3,3.7-9.7"/>
		<path id="Fill-33" class="st1" d="M-8.7,6.6c0-0.1,0-0.3,0-0.4c0,0,0,0,0-0.1c0-0.1-0.1-0.2-0.1-0.3C-8.8,5.8-8.9,5.8-9,5.8
			c0,0,0,0,0,0v0c-0.1,0-0.2,0.1-0.3,0.2c-0.1,0.1-0.2,0.2-0.2,0.3c0,0.1,0,0.3,0,0.4c0,0.1,0,0.3,0,0.4c0,0.1,0,0.2,0,0.4
			c0,0.1,0,0.2,0,0.4c0,0.1,0.1,0.2,0.2,0.3c0.1,0.1,0.2,0.2,0.4,0.2c0,0,0,0,0,0c0.1,0,0.2,0,0.2-0.1C-8.7,8.1-8.7,8-8.7,7.9
			c0,0,0,0,0-0.1c0-0.1,0-0.3,0-0.4c0-0.1,0-0.3,0-0.4C-8.7,6.9-8.7,6.8-8.7,6.6"/>
		<path id="Fill-35" class="st1" d="M-7.2,6.1c0-0.1-0.1-0.2-0.1-0.3c-0.1-0.1-0.2-0.1-0.3-0.1c-0.1,0-0.2,0-0.3,0.1
			c-0.1,0.1-0.1,0.2-0.1,0.3c0,0.2,0,0.3,0,0.5c0,0.2,0,0.3,0,0.5c0,0.2,0,0.3,0,0.5c0,0.2,0,0.3,0,0.5c0,0.1,0.1,0.2,0.1,0.3
			c0.1,0.1,0.2,0.1,0.3,0.1c0.1,0,0.2,0,0.3-0.1c0.1-0.1,0.1-0.2,0.1-0.3c0-0.2,0-0.3,0-0.5c0-0.2,0-0.3,0-0.5c0-0.2,0-0.3,0-0.5
			C-7.2,6.4-7.2,6.2-7.2,6.1"/>
		<path id="Fill-37" class="st1" d="M-5.8,7.5c0-0.1,0-0.3,0-0.4c0-0.1,0-0.3,0-0.4c0-0.1,0-0.3,0-0.4C-5.8,6.2-5.9,6.1-6,6
			c-0.1-0.1-0.2-0.2-0.3-0.2v0c0,0,0,0,0,0c-0.1,0-0.2,0-0.2,0.1C-6.7,6-6.7,6.1-6.7,6.2c0,0,0,0,0,0.1c0,0.1,0,0.3,0,0.4
			c0,0.1,0,0.3,0,0.4v0c0,0.1,0,0.3,0,0.4c0,0.1,0,0.3,0,0.4c0,0,0,0,0,0.1v0c0,0.1,0.1,0.2,0.1,0.3c0.1,0.1,0.1,0.1,0.2,0.1
			c0,0,0,0,0,0v0c0.1,0,0.2-0.1,0.3-0.2C-5.9,8.2-5.8,8-5.8,7.9C-5.8,7.8-5.8,7.6-5.8,7.5"/>
		<path id="Fill-39" class="st1" d="M-6,6c-0.1-0.1-0.2-0.2-0.3-0.2v0c0,0,0,0,0,0c-0.1,0-0.2,0-0.2,0.1C-6.7,6-6.7,6.1-6.7,6.2
			c0,0,0,0,0,0.1c0,0.1,0,0.3,0,0.4c0,0.1,0,0.2,0,0.3c0.1,0.2,0.3,0.4,0.5,0.4c0.2,0,0.3-0.1,0.5-0.3c0-0.1,0-0.2,0-0.3
			c0-0.1,0-0.3,0-0.4C-5.8,6.2-5.9,6.1-6,6L-6,6z M-8.7,7c-0.1,0.2-0.3,0.3-0.4,0.3c-0.2,0-0.4-0.2-0.5-0.4c0-0.1,0-0.2,0-0.3
			c0-0.1,0-0.2,0-0.4c0-0.1,0.1-0.2,0.2-0.3C-9.3,5.9-9.2,5.8-9,5.8v0c0,0,0,0,0,0c0.1,0,0.2,0,0.2,0.1C-8.7,6-8.7,6.1-8.7,6.2
			c0,0,0,0,0,0.1c0,0.1,0,0.3,0,0.4C-8.7,6.8-8.7,6.9-8.7,7L-8.7,7z M-7.2,7.2c-0.1,0.2-0.3,0.3-0.5,0.3c-0.2,0-0.4-0.1-0.5-0.4V7.1
			c0-0.2,0-0.3,0-0.5c0-0.2,0-0.3,0-0.5c0-0.1,0.1-0.2,0.1-0.3c0.1-0.1,0.2-0.1,0.3-0.1c0.1,0,0.2,0.1,0.3,0.1
			C-7.3,5.8-7.2,6-7.2,6.1c0,0.2,0,0.3,0,0.5c0,0.2,0,0.3,0,0.5L-7.2,7.2z"/>
		<path id="Fill-41" class="st1" d="M-1.3,6C-1.2,5.9-1.1,5.8-1,5.8v0c0,0,0,0,0,0c0.1,0,0.2,0,0.2,0.1C-0.6,6-0.6,6.1-0.6,6.2
			c0,0,0,0,0,0.1c0,0.1,0,0.3,0,0.4c0,0.1,0,0.3,0,0.4v0c0,0.1,0,0.3,0,0.4c0,0.1,0,0.3,0,0.4c0,0,0,0,0,0.1v0
			c0,0.1-0.1,0.2-0.1,0.3c-0.1,0.1-0.1,0.1-0.2,0.1c0,0,0,0,0,0v0c-0.1,0-0.2-0.1-0.3-0.2C-1.4,8.2-1.5,8-1.5,7.9c0-0.1,0-0.3,0-0.4
			c0-0.1,0-0.3,0-0.4c0-0.1,0-0.3,0-0.4c0-0.1,0-0.3,0-0.4C-1.5,6.2-1.4,6.1-1.3,6 M1.7,5.8C1.7,5.8,1.7,5.8,1.7,5.8L1.7,5.8
			C1.9,5.8,2,5.9,2.1,6c0.1,0.1,0.2,0.2,0.2,0.3c0,0.1,0,0.3,0,0.4c0,0.1,0,0.3,0,0.4c0,0.1,0,0.2,0,0.4c0,0.1,0,0.2,0,0.4
			c0,0.1-0.1,0.2-0.2,0.3C2,8.2,1.9,8.3,1.8,8.3c0,0,0,0,0,0c-0.1,0-0.2,0-0.2-0.1C1.4,8.1,1.4,8,1.4,7.9c0,0,0,0,0-0.1
			c0-0.1,0-0.3,0-0.4c0-0.1,0-0.3,0-0.4c0-0.1,0-0.3,0-0.4c0-0.1,0-0.3,0-0.4c0,0,0,0,0-0.1c0-0.1,0.1-0.2,0.1-0.3
			C1.5,5.8,1.6,5.8,1.7,5.8 M0.1,5.8c0.1-0.1,0.2-0.1,0.3-0.1c0.1,0,0.2,0,0.3,0.1c0.1,0.1,0.1,0.2,0.1,0.3c0,0.2,0,0.3,0,0.5
			c0,0.2,0,0.3,0,0.5c0,0.2,0,0.3,0,0.5c0,0.2,0,0.3,0,0.5c0,0.1-0.1,0.2-0.1,0.3C0.6,8.5,0.5,8.6,0.4,8.6c-0.1,0-0.2,0-0.3-0.1
			C0,8.4-0.1,8.2-0.1,8.1c0-0.2,0-0.3,0-0.5c0-0.2,0-0.3,0-0.5c0-0.2,0-0.3,0-0.5c0-0.2,0-0.3,0-0.5C-0.1,6,0,5.8,0.1,5.8"/>
		<path id="Fill-43" class="st1" d="M-1.3,6C-1.2,5.9-1.1,5.8-1,5.8v0c0,0,0,0,0,0c0.1,0,0.2,0,0.2,0.1C-0.6,6-0.6,6.1-0.6,6.2
			c0,0,0,0,0,0.1c0,0.1,0,0.3,0,0.4c0,0.1,0,0.2,0,0.3c-0.1,0.2-0.3,0.4-0.5,0.4c-0.2,0-0.3-0.1-0.5-0.3c0-0.1,0-0.2,0-0.3
			c0-0.1,0-0.3,0-0.4C-1.5,6.2-1.4,6.1-1.3,6L-1.3,6z M1.4,7c0.1,0.2,0.3,0.3,0.4,0.3c0.2,0,0.4-0.2,0.5-0.4c0-0.1,0-0.2,0-0.3
			c0-0.1,0-0.2,0-0.4c0-0.1-0.1-0.2-0.2-0.3C2,5.9,1.9,5.8,1.7,5.8v0c0,0,0,0,0,0c-0.1,0-0.2,0-0.2,0.1C1.4,6,1.4,6.1,1.4,6.2
			c0,0,0,0,0,0.1c0,0.1,0,0.3,0,0.4C1.4,6.8,1.4,6.9,1.4,7L1.4,7z M-0.1,7.2C0,7.4,0.2,7.5,0.4,7.5c0.2,0,0.4-0.1,0.5-0.4V7.1
			c0-0.2,0-0.3,0-0.5c0-0.2,0-0.3,0-0.5c0-0.1-0.1-0.2-0.1-0.3C0.6,5.7,0.5,5.6,0.4,5.6c-0.1,0-0.2,0.1-0.3,0.1C0,5.8-0.1,6-0.1,6.1
			c0,0.2,0,0.3,0,0.5c0,0.2,0,0.3,0,0.5L-0.1,7.2z"/>
		<path id="Fill-49" class="st1" d="M-1.7-10.5c0,0.3-0.2,0.5-0.5,0.5c-0.3,0-0.5-0.2-0.5-0.5c0-0.3,0.2-0.5,0.5-0.5
			C-1.9-11.1-1.7-10.8-1.7-10.5"/>
	</g>
</g>
</svg>
