<?xml version="1.0" encoding="utf-8"?>
<!-- Generator: Adobe Illustrator 22.1.0, SVG Export Plug-In . SVG Version: 6.00 Build 0)  -->
<svg version="1.1" id="Layer_1" xmlns="http://www.w3.org/2000/svg" xmlns:xlink="http://www.w3.org/1999/xlink" x="0px" y="0px"
	 viewBox="0 0 460 100" style="enable-background:new 0 0 460 100;" xml:space="preserve">
<style type="text/css">
	.st0{fill:#54476E;}
	.st1{fill-rule:evenodd;clip-rule:evenodd;fill:#54476E;}
	.st2{fill-rule:evenodd;clip-rule:evenodd;fill:#AF6BD6;}
	.st3{fill-rule:evenodd;clip-rule:evenodd;fill:#8C55B7;}
	.st4{fill-rule:evenodd;clip-rule:evenodd;fill:#FFFFFF;}
	.st5{fill:#FFB03F;}
	.st6{fill:#ED9140;}
	.st7{fill:#FFCE92;}
</style>
<path class="st0" d="M137.5,69.4l-15.9-17.9c10-2,13.3-9.3,13.3-16.5c0-9.1-6.5-17.4-18.9-17.4c-8.3,0-16.6,0-25,0V70h9.9V52.5h9.5
	L125.7,70h11.8V69.4z M116,26.7c6.2,0,9,4.2,9,8.4c0,4.2-2.7,8.4-9,8.4h-15.1V26.7H116z M166.4,16.5c-18.1,0-27,13.9-27,27.7
	c0,13.8,8.6,27.1,27,27.1c18.4,0,26.8-13.6,26.9-27.2C193.4,30.4,184.4,16.5,166.4,16.5z M166.4,25.5c12.4,0,17.3,9.9,17.2,18.7
	c-0.1,8.6-4.8,17.9-17.2,17.9c-12.4,0-17-9.2-17.2-17.8C148.9,35.5,154,25.5,166.4,25.5z M224.4,16.5c-18.2,0-27,13.9-27,27.7
	c0,13.8,8.5,27.1,27,27.1c18.4,0,26.8-13.6,26.9-27.2C251.5,30.4,242.5,16.5,224.4,16.5z M224.4,25.5c12.4,0,17.3,9.9,17.2,18.7
	c-0.1,8.6-4.8,17.9-17.2,17.9c-12.4,0-17-9.2-17.2-17.8C206.9,35.5,212,25.5,224.4,25.5z M326.3,16.5c-18.1,0-27,13.9-27,27.7
	c0,13.8,8.6,27.1,27,27.1c18.5,0,26.8-13.6,26.9-27.2C353.3,30.4,344.3,16.5,326.3,16.5z M326.3,25.5c12.4,0,17.3,9.9,17.2,18.7
	c-0.1,8.6-4.8,17.9-17.2,17.9s-17-9.2-17.2-17.8C308.8,35.5,313.9,25.5,326.3,25.5z M395.1,17.6v30.1c0,9-4.7,14.5-12.8,14.5
	c-8.2,0-13.6-5-13.6-14.5V17.6h-9.8v30.1c0,15.8,10.7,23.5,23.3,23.5c13.2,0,22.7-8,22.7-23.5V17.6H395.1z M256.3,70h9.9V46.6
	L288.4,70h12.2v-0.6l-25.3-26.5l23.3-25.2v-0.3h-12.3L266.2,40V17.5h-9.9V70z M426.6,70h9.9V26.5h16.6v-9c-15.2,0-28,0-43.2,0v9
	h16.7V70z"/>
<g>
	<path class="st1" d="M53.5,6.7C52.8,7.9,52,9,51,9.9c-2.1,1.7-4.8,1.9-7.4,1.7l-0.1,0h-0.1c-8.6,0-15.6,7-15.6,15.6v6.9l-0.3,0.3
		c-3.9,3.4-5.4,8.2-5.4,13.2c0,5.6,2.1,11.6,5.2,16.6h-9.8c-3,0-5.2-1.7-6-4.3H6v0.7c0,6.7,5.4,9.7,11.3,9.7h12.5l-2.6,9.5
		c-0.7,2.4-0.7,5.1,0.5,7.4c0.9,1.7,2.4,3,4.3,3.4c1.3,0.3,2.7,0.2,4-0.3l0.8-0.3l0.4,0.7c0.2,0.3,0.4,0.6,0.6,0.9
		c1.4,1.8,3.5,2.9,5.8,2.9c2.3,0,4.4-1.1,5.8-2.9c0.2-0.3,0.4-0.6,0.6-0.9l0.4-0.7l0.8,0.3c1.2,0.5,2.6,0.6,3.9,0.3
		c1.9-0.5,3.4-1.7,4.3-3.4c1.2-2.3,1.1-5,0.4-7.4l-2.6-9.5h12.5c5.9,0,11.3-3,11.3-9.7V60h-5.6c-0.8,2.6-3,4.3-6,4.3h-9.8
		c3.1-5,5.2-11,5.2-16.6c0-5.1-1.5-9.8-5.4-13.2l-0.1-0.1l7.6-4.9c-1.2-3.4-6.4-7.9-9.2-9.4c-0.4-0.9-0.9-1.7-1.5-2.4l-0.4-0.4
		l0.2-0.5C57.1,13.9,55.2,9.5,53.5,6.7"/>
	<path class="st2" d="M54.5,70.4l2.8,10.2c2.2,8.1-5.6,10.8-8.5,3.9c0.5,10.3-11.1,10.3-10.6,0c-2.8,6.9-10.8,4.2-8.6-3.9l2.8-10.2
		h1.5c3.3,0,5.9,1.8,6.7,5.1h5.7c0.8-3.3,3.3-5.1,6.7-5.1H54.5z M44.8,20.4c2.6,0,4.7,2.1,4.7,4.7c0,2.6-2.1,4.7-4.7,4.7
		c-2.6,0-4.7-2.1-4.7-4.7C40.1,22.5,42.2,20.4,44.8,20.4z M56.6,35.4c3.6,2.5,5.8,6.4,5.8,12.3c0,4.5-1.5,9.4-4,13.7
		c-0.6-0.4-1.5-0.4-2.7-0.6c-0.7-0.1-1.3-0.8-2.5-0.8c-1.3,0-1.9,0.7-2.6,0.8c-1.4,0.2-2.3,0.1-2.9,0.7c-0.4,0.4-0.7,1.2-0.8,1.8
		c0,0.3-0.1,0.7-0.1,1.1c0,0.4,0,0.7,0,1.1c-1.1,0.6-2,1.6-2.7,3l-0.6,1l-0.6-1c-0.8-1.5-1.7-2.4-2.7-3.1c0-0.4,0-0.7,0-1.1
		c0-0.4,0-0.8-0.1-1.1c-0.1-0.6-0.3-1.4-0.8-1.8c-0.6-0.6-1.5-0.5-2.9-0.7c-0.7-0.1-1.3-0.8-2.6-0.8c-1.3,0-1.8,0.7-2.5,0.8
		c-1.2,0.2-2.1,0.2-2.7,0.6c-2.4-4.3-4-9.2-4-13.7c0-5.8,2.2-9.8,5.8-12.3c1.1-0.7,2.2-1.4,3.3-2.1c0.8-0.5,0.9-1.1-0.4-1l-3,0.3
		v-5.4c0-7.2,5.9-13.1,13.1-13.1c0,0,8.2,0.4,9.8-3.2c1.5,2.9,0.7,5.3-0.8,6.7c1.2,0.5,2.2,1.8,3,3.3C52.4,25.1,52.3,31.8,56.6,35.4
		z"/>
	<path class="st3" d="M28.6,61.4c-2.4-4.3-4-9.2-4-13.7c0-5.8,2.2-9.8,5.8-12.3c1.1-0.7,2.2-1.4,3.3-2.1c0.8-0.5,0.9-1.1-0.4-1
		l-3,0.3v-5.4c0-4.6,2.4-8.6,6-11c-4.8,5.6-2,14.9,2.8,17.3c-11.7,7.2-8.1,17.4-2.8,27.2C35.6,60.6,35,60,33.8,60
		c-1.3,0-1.8,0.7-2.5,0.8C30.1,61,29.2,61,28.6,61.4 M53.2,11c1.5,2.9,0.7,5.3-0.8,6.7c-0.8-0.3-1.2-0.5-1.9-0.6
		c-0.2,0-0.3-0.3,0-0.5C52.2,15.4,53.3,13.8,53.2,11z M43.9,92.2c-2.9,0.2-5.9-2.3-5.7-7.7c-2.8,6.9-10.8,4.2-8.6-3.9l2.8-10.2h1.5
		c3.3,0,5.9,1.8,6.7,5.1h5.6l0,0.1C43.5,81.1,43.9,86.3,43.9,92.2z"/>
	<path class="st4" d="M43.5,39.2c6.6,0,12,5,12,13.5c0,2.5-0.6,5.1-1.6,7.4C53.6,60,53.4,60,53.1,60c-1.3,0-1.9,0.7-2.6,0.8
		c-1.4,0.2-2.3,0.1-2.9,0.7c-0.4,0.4-0.7,1.2-0.8,1.8c0,0.3-0.1,0.7-0.1,1.1c0,0.4,0,0.7,0,1.1c-1.1,0.6-2,1.6-2.7,3l-0.6,1l-0.6-1
		c-0.8-1.5-1.7-2.4-2.7-3.1c0-0.4,0-0.7,0-1.1c0-0.4,0-0.8-0.1-1.1c-0.1-0.6-0.3-1.4-0.8-1.8c-0.6-0.6-1.5-0.5-2.9-0.7
		c-0.7-0.1-1.3-0.8-2.6-0.8c-0.3,0-0.5,0-0.7,0.1c-1-2.3-1.6-4.9-1.6-7.4C31.5,44.2,36.8,39.2,43.5,39.2"/>
	<path class="st5" d="M60.9,25c-1.3-1.2-2.8-2.2-4.2-3c-1.2,2.1-1.6,4.1-1.5,5.8c0.1,2.1,0.8,3.9,1.7,5l7.2-4.2
		C63.2,27.4,62.1,26.1,60.9,25"/>
	<path class="st6" d="M55.4,29.8c0.3,1.3,0.9,2.3,1.5,3.1l7.2-4.2C61.3,29.5,58.3,29.9,55.4,29.8"/>
	<path class="st7" d="M62.5,27.7c-1.3-1.7-2.9-2.9-5-4.2c-0.4,0.5-0.6,1.1-0.7,1.8C58.7,26,60.6,26.8,62.5,27.7"/>
	<path class="st4" d="M46.3,22c0.8,0,1.5,0.7,1.5,1.5c0,0.8-0.7,1.5-1.5,1.5c-0.8,0-1.5-0.7-1.5-1.5C44.7,22.6,45.4,22,46.3,22"/>
	<path class="st6" d="M34.6,62.4c-0.2-0.2-0.5-0.3-0.8-0.3c-0.3,0-0.5,0.1-0.7,0.3c-0.2,0.2-0.3,0.4-0.3,0.7c0,0.4,0,0.8,0,1.2
		c0,0.4,0,0.8,0,1.2c0,0.4,0,0.8,0,1.2c0,0.4,0,0.8,0,1.2c0,0.3,0.1,0.5,0.3,0.7c0.2,0.2,0.5,0.3,0.7,0.3c0.3,0,0.5-0.1,0.7-0.3
		c0.2-0.2,0.3-0.4,0.3-0.7c0-0.4,0-0.8,0-1.2c0-0.4,0-0.8,0-1.2c0-0.4,0-0.8,0-1.2c0-0.4,0-0.8,0-1.2C34.9,62.8,34.8,62.5,34.6,62.4
		 M30.7,62.4C30.6,62.4,30.6,62.4,30.7,62.4L30.7,62.4c-0.4,0-0.7,0.2-0.9,0.4c-0.2,0.2-0.4,0.5-0.4,0.8c0,0.3-0.1,0.6-0.1,0.9
		c0,0.3,0,0.6,0,0.9c0,0.3,0,0.6,0,0.9c0,0.3,0,0.6,0,0.9c0,0.3,0.2,0.6,0.4,0.8c0.2,0.2,0.5,0.4,0.8,0.4l0,0c0,0,0.1,0,0.1,0
		c0.2,0,0.4-0.1,0.6-0.3c0.2-0.2,0.3-0.4,0.3-0.7c0,0,0-0.1,0-0.1c0-0.3,0-0.6,0-1c0-0.3,0-0.6,0-1c0-0.3,0-0.6,0-0.9
		c0-0.3,0-0.6,0-1c0,0,0-0.1,0-0.1c0-0.3-0.1-0.5-0.3-0.7C31.1,62.5,30.9,62.4,30.7,62.4z M37.9,62.9c-0.2-0.2-0.5-0.4-0.8-0.4v0
		c0,0,0,0-0.1,0c-0.2,0-0.4,0.1-0.6,0.3c-0.2,0.2-0.3,0.4-0.3,0.7c0,0.1,0,0.1,0,0.1c0,0.3,0,0.7,0,1c0,0.3,0,0.7,0,1v0
		c0,0.3,0,0.7,0,1c0,0.3,0,0.7,0,1c0,0,0,0.1,0,0.2v0c0,0.3,0.1,0.5,0.3,0.7c0.1,0.2,0.3,0.2,0.5,0.3c0,0,0,0,0.1,0v0
		c0.3,0,0.6-0.2,0.8-0.4c0.2-0.2,0.4-0.6,0.5-0.9c0-0.3,0.1-0.6,0.1-0.9c0-0.3,0-0.6,0-0.9c0-0.3,0-0.6,0-0.9c0-0.3,0-0.6-0.1-0.9
		C38.3,63.4,38.1,63.1,37.9,62.9z"/>
	<path class="st5" d="M35,65.8c-0.3,0.5-0.7,0.8-1.1,0.8c-0.4,0-0.8-0.3-1.1-0.9l0-0.2c0-0.4,0-0.8,0-1.2c0-0.4,0-0.8,0-1.2
		c0-0.3,0.1-0.5,0.3-0.7c0.2-0.2,0.5-0.3,0.7-0.3c0.3,0,0.6,0.1,0.8,0.3c0.2,0.2,0.3,0.4,0.3,0.7c0,0.4,0,0.8,0,1.2
		c0,0.4,0,0.8,0,1.2L35,65.8z M31.5,65.3c-0.3,0.5-0.7,0.7-1.1,0.7c-0.5,0-0.9-0.4-1.2-0.9c0-0.2,0-0.4,0-0.6c0-0.3,0-0.6,0.1-0.9
		c0-0.3,0.2-0.6,0.4-0.8c0.2-0.2,0.5-0.4,0.8-0.4v0c0,0,0,0,0.1,0c0.2,0,0.4,0.1,0.6,0.3c0.2,0.2,0.3,0.4,0.3,0.7c0,0,0,0.1,0,0.1
		c0,0.3,0,0.6,0,1C31.5,64.7,31.5,65,31.5,65.3z M37.9,62.9c-0.2-0.2-0.5-0.4-0.8-0.4v0c0,0,0,0-0.1,0c-0.2,0-0.4,0.1-0.6,0.3
		c-0.2,0.2-0.3,0.4-0.3,0.7c0,0.1,0,0.1,0,0.1c0,0.3,0,0.7,0,1c0,0.2,0,0.4,0,0.6c0.3,0.5,0.7,0.9,1.1,0.9c0.4,0,0.8-0.3,1.1-0.8
		c0-0.2,0-0.4,0-0.6c0-0.3,0-0.6-0.1-0.9C38.3,63.4,38.1,63.1,37.9,62.9z"/>
	<path class="st6" d="M52.3,62.4c0.2-0.2,0.5-0.3,0.8-0.3c0.3,0,0.5,0.1,0.7,0.3c0.2,0.2,0.3,0.4,0.3,0.7c0,0.4,0,0.8,0,1.2
		c0,0.4,0,0.8,0,1.2c0,0.4,0,0.8,0,1.2c0,0.4,0,0.8,0,1.2c0,0.3-0.1,0.5-0.3,0.7c-0.2,0.2-0.5,0.3-0.7,0.3c-0.3,0-0.5-0.1-0.7-0.3
		C52.1,68.5,52,68.2,52,68c0-0.4,0-0.8,0-1.2c0-0.4,0-0.8,0-1.2c0-0.4,0-0.8,0-1.2c0-0.4,0-0.8,0-1.2C52,62.8,52.1,62.5,52.3,62.4
		 M56.3,62.4C56.3,62.4,56.3,62.4,56.3,62.4L56.3,62.4c0.4,0,0.7,0.2,0.9,0.4c0.2,0.2,0.4,0.5,0.4,0.8c0,0.3,0.1,0.6,0.1,0.9
		c0,0.3,0,0.6,0,0.9c0,0.3,0,0.6,0,0.9c0,0.3,0,0.6,0,0.9c0,0.3-0.2,0.6-0.4,0.8c-0.2,0.2-0.5,0.4-0.8,0.4l0,0c0,0-0.1,0-0.1,0
		c-0.2,0-0.4-0.1-0.6-0.3c-0.2-0.2-0.3-0.4-0.3-0.7c0,0,0-0.1,0-0.1c0-0.3,0-0.6,0-1c0-0.3,0-0.6,0-1c0-0.3,0-0.6,0-0.9
		c0-0.3,0-0.6,0-1c0,0,0-0.1,0-0.1c0-0.3,0.1-0.5,0.3-0.7C55.8,62.5,56,62.4,56.3,62.4z M49,62.9c0.2-0.2,0.5-0.4,0.8-0.4v0
		c0,0,0,0,0.1,0c0.2,0,0.4,0.1,0.6,0.3c0.2,0.2,0.3,0.4,0.3,0.7c0,0.1,0,0.1,0,0.1c0,0.3,0,0.7,0,1c0,0.3,0,0.7,0,1v0
		c0,0.3,0,0.7,0,1c0,0.3,0,0.7,0,1c0,0,0,0.1,0,0.2v0c0,0.3-0.1,0.5-0.3,0.7c-0.1,0.2-0.3,0.2-0.5,0.3c0,0,0,0-0.1,0v0
		c-0.3,0-0.6-0.2-0.8-0.4c-0.2-0.2-0.4-0.6-0.5-0.9c0-0.3-0.1-0.6-0.1-0.9c0-0.3,0-0.6,0-0.9c0-0.3,0-0.6,0-0.9c0-0.3,0-0.6,0.1-0.9
		C48.6,63.4,48.8,63.1,49,62.9z"/>
	<path class="st5" d="M52,65.8c0.3,0.5,0.7,0.8,1.1,0.8c0.4,0,0.8-0.3,1.1-0.9l0-0.2c0-0.4,0-0.8,0-1.2c0-0.4,0-0.8,0-1.2
		c0-0.3-0.1-0.5-0.3-0.7c-0.2-0.2-0.5-0.3-0.7-0.3c-0.3,0-0.6,0.1-0.8,0.3c-0.2,0.2-0.3,0.4-0.3,0.7c0,0.4,0,0.8,0,1.2
		c0,0.4,0,0.8,0,1.2L52,65.8z M55.4,65.3c0.3,0.5,0.7,0.7,1.1,0.7c0.5,0,0.9-0.4,1.2-0.9c0-0.2,0-0.4,0-0.6c0-0.3,0-0.6-0.1-0.9
		c0-0.3-0.2-0.6-0.4-0.8c-0.2-0.2-0.5-0.4-0.8-0.4v0c0,0,0,0-0.1,0c-0.2,0-0.4,0.1-0.6,0.3c-0.2,0.2-0.3,0.4-0.3,0.7
		c0,0,0,0.1,0,0.1c0,0.3,0,0.6,0,1C55.4,64.7,55.4,65,55.4,65.3z M49,62.9c0.2-0.2,0.5-0.4,0.8-0.4v0c0,0,0,0,0.1,0
		c0.2,0,0.4,0.1,0.6,0.3c0.2,0.2,0.3,0.4,0.3,0.7c0,0.1,0,0.1,0,0.1c0,0.3,0,0.7,0,1c0,0.2,0,0.4,0,0.6c-0.3,0.5-0.7,0.9-1.1,0.9
		c-0.4,0-0.8-0.3-1.1-0.8c0-0.2,0-0.4,0-0.6c0-0.3,0-0.6,0.1-0.9C48.6,63.4,48.8,63.1,49,62.9z"/>
	<circle class="st2" cx="45.3" cy="24.8" r="5.4"/>
	<circle class="st1" cx="44.9" cy="24.9" r="3.9"/>
	<circle class="st4" cx="46.2" cy="23.4" r="1.3"/>
</g>
</svg>
