<svg width="16" height="16" viewBox="0 0 16 16" fill="none" xmlns="http://www.w3.org/2000/svg">
<path fill-rule="evenodd" clip-rule="evenodd" d="M14 8C14 11.3137 11.3137 14 8 14C6.517 14 5.15967 13.462 4.11254 12.5705L12.6028 4.15081C13.475 5.19263 14 6.535 14 8ZM3.40744 11.8614L11.8995 3.43985C10.8508 2.54218 9.4887 2 8 2C4.68629 2 2 4.68629 2 8C2 9.4707 2.52915 10.8178 3.40744 11.8614ZM15 8C15 11.866 11.866 15 8 15C4.13401 15 1 11.866 1 8C1 4.13401 4.13401 1 8 1C11.866 1 15 4.13401 15 8Z" fill="#9962FF"/>
</svg>
