<svg width="13" height="11" viewBox="0 0 13 11" fill="none" xmlns="http://www.w3.org/2000/svg">
<path fill-rule="evenodd" clip-rule="evenodd" d="M7.366 0.499992C6.98112 -0.166664 6.01887 -0.166664 5.63395 0.499992L0.870826 8.74999C0.485908 9.41665 0.967048 10.25 1.73682 10.25H11.2631C12.0329 10.25 12.514 9.41665 12.1291 8.74999L7.366 0.499992ZM6.05344 6.9414H6.99094L7.12376 2.99999H5.92063L6.05344 6.9414ZM6.97922 7.72655C6.86463 7.61459 6.71229 7.55859 6.52219 7.55859C6.33469 7.55859 6.18235 7.61587 6.06516 7.73046C5.95057 7.84243 5.89329 7.98437 5.89329 8.15624C5.89329 8.32812 5.95057 8.47005 6.06516 8.58202C6.18235 8.69399 6.33469 8.74999 6.52219 8.74999C6.71229 8.74999 6.86463 8.69399 6.97922 8.58202C7.09641 8.47005 7.15501 8.32812 7.15501 8.15624C7.15501 7.98177 7.09641 7.83852 6.97922 7.72655Z" fill="#9962FF"/>
</svg>
