<svg width="16" height="16" viewBox="0 0 16 16" fill="none" xmlns="http://www.w3.org/2000/svg">
<circle cx="5" cy="5" r="3" fill="#9962FF"/>
<path fill-rule="evenodd" clip-rule="evenodd" d="M9.08404 1.31397C8.94804 1.62943 9.13449 2.00665 9.46612 2.09626C12.0229 2.78709 13.9041 5.12291 13.9041 7.89812C13.9041 11.217 11.2136 13.9075 7.89468 13.9075C5.12394 13.9075 2.79117 12.0324 2.09617 9.4819C2.00572 9.14997 1.62697 8.96438 1.31168 9.10205V9.10205C1.09152 9.19818 0.954485 9.43178 1.01405 9.6645C1.79928 12.7323 4.58213 15.0001 7.89468 15.0001C11.817 15.0001 14.9967 11.8205 14.9967 7.89812C14.9967 4.58035 12.7217 1.79394 9.64655 1.0138C9.41314 0.954581 9.17938 1.09285 9.08404 1.31397V1.31397Z" fill="#9962FF"/>
</svg>
