<?xml version="1.0" encoding="utf-8"?>
<!-- Generator: Adobe Illustrator 22.0.1, SVG Export Plug-In . SVG Version: 6.00 Build 0)  -->
<svg version="1.1" id="Layer_1" xmlns="http://www.w3.org/2000/svg" xmlns:xlink="http://www.w3.org/1999/xlink" x="0px" y="0px"
	 viewBox="0 0 16 16" style="enable-background:new 0 0 16 16;" xml:space="preserve">
<title>icons/search</title>
<desc>Created with Sketch.</desc>
<g id="Symbols">
	<g id="icons_x2F_search">
		<path d="M15.1957,13.564l-4.0712-4.2075c0.6259-0.9579,0.9914-2.1123,0.9914-3.355C12.1158,2.6874,9.5151,0,6.3079,0
			S0.5,2.6874,0.5,6.0015s2.6007,6.0014,5.8079,6.0014c0.9503,0,1.8464-0.2358,2.6377-0.6534l4.1972,4.336
			c0,0,0.6839,0.7076,1.3689,0l0.684-0.7069C15.8804,14.271,15.1957,13.564,15.1957,13.564z M6.3079,10.0024
			c-2.1384,0-3.8719-1.7913-3.8719-4.0009c0-2.2097,1.7336-4.001,3.8719-4.001s3.8719,1.7913,3.8719,4.001
			C10.1799,8.2111,8.4463,10.0024,6.3079,10.0024z"/>
	</g>
</g>
</svg>
