<?xml version="1.0" encoding="utf-8"?>
<!-- Generator: Adobe Illustrator 22.1.0, SVG Export Plug-In . SVG Version: 6.00 Build 0)  -->
<svg version="1.1" id="Facebook" xmlns="http://www.w3.org/2000/svg" xmlns:xlink="http://www.w3.org/1999/xlink" x="0px" y="0px"
	 viewBox="0 0 100 100" style="enable-background:new 0 0 100 100;" xml:space="preserve" fill="#FFF">
<path d="M50,0C22.4,0,0,22.4,0,50s22.4,50,50,50s50-22.4,50-50S77.6,0,50,0z M57,36.9c3.5,0,7.2-0.1,10.7,0.1
	c-0.1,3.7,0,7.6-0.1,11.3c-3.5,0-7.1,0-10.6,0c0,11.7,0,23.3,0,35c-5,0-10,0-15,0c0-11.7,0-23.3,0-35c-3.1-0.1-6.4,0-9.6-0.1
	c0-3.8,0-7.6,0-11.4c3.2,0,6.4,0,9.5,0c0.1-3,0-5.7,0.2-8.1s1-4.4,2.1-6.1c2.2-3.2,5.8-5.8,10.7-6c4-0.2,8.5,0.1,12.8,0.1
	c0,3.8,0.1,7.7-0.1,11.4c-2.1,0.1-4.3-0.2-6.1,0c-1.9,0.2-3.3,1.3-3.9,2.7C56.7,32.5,57,34.6,57,36.9z"/>
</svg>
