<?xml version="1.0" encoding="utf-8"?>
<!-- Generator: Adobe Illustrator 22.1.0, SVG Export Plug-In . SVG Version: 6.00 Build 0)  -->
<svg version="1.1" id="Layer_1" xmlns="http://www.w3.org/2000/svg" xmlns:xlink="http://www.w3.org/1999/xlink" x="0px" y="0px"
	 viewBox="0 0 100 100" style="enable-background:new 0 0 100 100;" xml:space="preserve" fill="#FFF">
<g>
	<path d="M50,0C22.4,0,0,22.4,0,50s22.4,50,50,50s50-22.4,50-50S77.6,0,50,0z M81.8,61.2c-0.6,2.2-0.8,2.9-1.1,3.5l-0.2,0.4
		c-2.7,6.2-8.7,10.2-21.1,11.5H41.8c-11.6-1.3-18.2-5.3-21.5-11.4c0,0-0.1-0.2-0.2-0.4c-0.3-0.6-0.6-1.3-0.9-2
		C19,62.5,19,62.6,19,62.3c-1.2-3.3-1.7-7.1-1.7-11.4c0-5.6,2-10.2,5.4-13.8c-0.5-1.3-2.3-6.6,0.5-13.6c0,0,4.3-1.4,14.2,5.3
		c4.1-1.1,8.6-1.7,12.9-1.7c4,0,8,0.5,11.7,1.4c6.9-4.6,11-5.2,12.7-5.2c0.7,0,1,0.1,1,0.1c2.4,6,1.5,10.6,0.9,12.7
		c3.7,3.7,6,8.6,6,14.7C82.7,55.2,82.4,59,81.8,61.2z"/>
	<path d="M68.1,48.2c-1.8-1.9-4.3-2.4-7.2-2.4c-3.1,0-6.6,0.6-10.3,0.6c-7.3,0-13.7-2.1-17.5,1.9c-2.3,2.4-3.6,5.3-3.6,8.5
		c0,13.1,9.5,15.1,21.2,15.1s21.2-0.4,21.2-15.1C71.7,53.6,70.4,50.7,68.1,48.2L68.1,48.2z M39.1,64.8c-2.4,0-4.4-3.3-4.4-7.3
		c0-4.1,2-7.3,4.4-7.3s4.4,3.3,4.4,7.3S41.5,64.8,39.1,64.8z M62.7,64.8c-2.4,0-4.4-3.3-4.4-7.3c0-4.1,2-7.3,4.4-7.3
		c2.4,0,4.4,3.3,4.4,7.3S65.2,64.8,62.7,64.8z"/>
</g>
</svg>
